<svg width="93" height="91" viewBox="0 0 93 91" fill="none" xmlns="http://www.w3.org/2000/svg">
<path fill-rule="evenodd" clip-rule="evenodd" d="M56.6598 62.888C56.1522 62.7804 55.6035 62.9396 55.251 63.1909C54.8986 63.442 54.6795 63.7435 54.5003 64.0352C54.1417 64.6186 53.9223 65.2334 53.7616 65.5701C52.1307 68.9876 52.1281 72.2395 51.5859 76.2423C51.5161 76.7579 51.7743 77.3352 52.0905 77.6278C52.4067 77.9204 52.7258 78.0465 53.0229 78.1489C53.6171 78.3536 54.2161 78.4496 54.4559 78.5286C58.4171 79.8363 62.538 79.7756 66.3473 80.2817C70.9056 80.8873 79.9865 81.9134 79.9865 81.9136L80.931 82.0192L83.3125 70.0867L82.5012 69.7757C82.5012 69.7757 77.0412 67.6718 74.1053 66.8269C68.3391 65.1697 63.0145 64.2228 56.6598 62.888ZM56.3974 64.9481C62.7045 66.2698 67.9437 67.2121 73.5322 68.8178C75.9703 69.5194 80.024 71.0716 80.9391 71.4192L79.276 79.7445C78.162 79.6183 70.8144 78.7866 66.6217 78.2297C62.612 77.6971 58.6268 77.7292 55.1017 76.5654C54.5622 76.3876 54.0188 76.3047 53.697 76.1938C53.6811 76.1938 53.6912 76.1938 53.6767 76.1938C54.1899 72.2519 54.262 69.33 55.6264 66.4709C55.8596 65.9822 56.07 65.4457 56.2641 65.1298C56.3337 65.0161 56.3657 64.9892 56.3973 64.9561L56.3974 64.9481Z" fill="#FF0000"/>
<path fill-rule="evenodd" clip-rule="evenodd" d="M77.7866 28.6136C76.9452 28.5619 76.0826 28.7108 75.2961 29.2032C73.0043 30.6375 72.2356 33.1622 71.6552 35.533C71.0748 37.9035 70.6186 40.2238 69.4634 41.7214C68.5981 42.8429 66.8008 43.5385 65.3139 45.0741C63.3993 47.0519 60.8674 49.1404 59.9414 52.2319C59.2344 54.5919 59.5138 57.7668 59.8889 60.4602C60.2641 63.1536 60.7931 65.3358 60.7931 65.3358L62.8033 64.847C62.8033 64.847 62.2949 62.7547 61.9354 60.1734C61.5759 57.5923 61.4214 54.4877 61.9193 52.8257C62.6098 50.5205 64.7819 48.5917 66.7953 46.5121C67.8336 45.4398 69.7518 44.7362 71.1022 42.9857C72.6936 40.9227 73.1076 38.3041 73.6654 36.0258C74.2232 33.7477 74.8619 31.9124 76.39 30.9563C77.0029 30.5727 78.327 30.6827 79.2922 31.1177C79.8237 31.3569 80.4203 31.7177 80.8301 32.1073C81.2399 32.497 81.4224 32.8606 81.4275 33.1536C81.5392 39.5263 78.5414 50.2766 78.5414 50.2766L80.5314 50.8421C80.5314 50.8421 83.6175 40.1542 83.4942 33.1172C83.4758 32.0678 82.9004 31.2262 82.2509 30.6087C81.6015 29.9911 80.8389 29.5458 80.1399 29.2312C79.446 28.9183 78.628 28.6651 77.7866 28.6136Z" fill="#FF0000"/>
<path fill-rule="evenodd" clip-rule="evenodd" d="M82.7191 11.0663C81.7288 11.1614 80.8633 11.6564 80.1802 12.3105C79.4971 12.9645 78.9743 13.7912 78.7917 14.7341C78.603 15.7084 78.6939 17.0312 78.8401 18.7331C78.9863 20.4352 79.228 22.4262 79.4859 24.3318C80.0019 28.1429 80.5839 31.6107 80.5839 31.6107L82.6182 31.2714C82.6182 31.2714 82.0431 27.8249 81.5324 24.053C81.2771 22.167 81.04 20.2 80.8987 18.5553C80.7574 16.9107 80.7509 15.4971 80.822 15.1298C80.9008 14.7232 81.1969 14.1998 81.6091 13.805C82.0214 13.4104 82.5306 13.1594 82.9169 13.1222C83.3139 13.085 83.892 13.234 84.3822 13.5426C84.8723 13.8511 85.2486 14.3024 85.3751 14.6654C87.6019 21.0544 88.6878 25.7932 90.2471 32.3136C91.3958 37.1168 90.9856 42.4131 89.7426 47.2998C88.8711 50.7258 86.7835 54.8411 84.9715 56.8369C80.8428 61.384 76.0025 68.2685 76.0025 68.2685L77.6897 69.4601C77.6897 69.4601 82.5317 62.6024 86.5013 58.2305C88.704 55.8045 90.7826 51.5909 91.7447 47.8088C93.0482 42.6843 93.5112 37.0764 92.2573 31.8329C90.7 25.3212 89.5872 20.4784 87.3247 13.9868C86.9945 13.0391 86.299 12.3066 85.4841 11.7935C84.6693 11.2802 83.7112 10.9709 82.7191 11.0663Z" fill="#FF0000"/>
<path fill-rule="evenodd" clip-rule="evenodd" d="M36.3402 62.888C29.9855 64.2228 24.6609 65.1692 18.8947 66.8264C15.9588 67.6713 10.4988 69.7752 10.4988 69.7752L9.6875 70.0863L12.069 82.0187L13.0135 81.9132C13.0135 81.9132 22.0944 80.8868 26.6527 80.2812C30.462 79.7752 34.5829 79.8356 38.5441 78.5279H38.5483C38.788 78.4493 39.383 78.3521 39.9772 78.1482C40.2743 78.0448 40.5934 77.92 40.9096 77.6273C41.2258 77.3347 41.484 76.7574 41.4142 76.2418C40.872 72.2391 40.8694 68.9869 39.2385 65.5694C39.0778 65.2327 38.8584 64.6179 38.4998 64.0344C38.3206 63.7428 38.1015 63.4413 37.7491 63.1902C37.3966 62.9391 36.8478 62.7815 36.3402 62.888ZM36.6026 64.9481C36.6342 64.9812 36.6662 65.0081 36.7358 65.1218C36.9299 65.4376 37.1403 65.9742 37.3736 66.4629C38.7379 69.322 38.81 72.2438 39.3232 76.1858C39.3087 76.1858 39.319 76.1858 39.3029 76.1858C38.9811 76.2975 38.4377 76.3802 37.8982 76.5574C34.3731 77.7212 30.3879 77.6891 26.3782 78.2216C22.1855 78.7786 14.8379 79.6098 13.7239 79.7364L12.0609 71.4112C12.9755 71.0637 17.0245 69.5122 19.4637 68.8098C25.0536 67.2032 30.294 66.2622 36.6025 64.94L36.6026 64.9481Z" fill="#FF0000"/>
<path fill-rule="evenodd" clip-rule="evenodd" d="M15.2134 28.6136C14.372 28.6653 13.5541 28.9186 12.8602 29.2315C12.1612 29.5461 11.3986 29.9914 10.7491 30.6089C10.0996 31.2265 9.52428 32.068 9.50586 33.1174C9.38248 40.1544 12.4686 50.8424 12.4686 50.8424L14.4586 50.2768C14.4586 50.2768 11.4608 39.5264 11.5725 33.1538C11.5777 32.8607 11.7602 32.4972 12.1699 32.1075C12.5797 31.7179 13.1764 31.3572 13.7078 31.1179C14.6731 30.6827 15.9971 30.5727 16.61 30.9566C18.1381 31.9127 18.7769 33.7477 19.3346 36.0258C19.8924 38.3041 20.3064 40.9229 21.8978 42.986C23.2482 44.7365 25.1665 45.44 26.2047 46.5124C28.2182 48.5919 30.3902 50.5208 31.0807 52.826C31.5786 54.488 31.4241 57.5926 31.0646 60.1737C30.7051 62.755 30.1968 64.8473 30.1968 64.8473L32.2069 65.3361C32.2069 65.3361 32.7359 63.1539 33.1111 60.4605C33.4862 57.7671 33.7656 54.5922 33.0586 52.2322C32.1326 49.1407 29.6008 47.0519 27.6861 45.0741C26.1992 43.5385 24.402 42.8432 23.5366 41.7216C22.3814 40.224 21.9252 37.9038 21.3448 35.5332C20.7644 33.1625 19.9957 30.6376 17.7039 29.2033C16.9174 28.7111 16.0548 28.5619 15.2134 28.6136Z" fill="#FF0000"/>
<path fill-rule="evenodd" clip-rule="evenodd" d="M10.2809 11.0662C9.28881 10.9711 8.33074 11.2801 7.51588 11.7934C6.70102 12.3065 6.00553 13.0391 5.67526 13.9867C3.41276 20.4783 2.29997 25.3212 0.742703 31.8329C-0.511255 37.0763 -0.0482179 42.6842 1.25533 47.8088C2.21741 51.5908 4.29604 55.8045 6.49869 58.2304C10.4682 62.6024 15.3103 69.46 15.3103 69.46L16.9975 68.2684C16.9975 68.2684 12.1571 61.384 8.02851 56.8368C6.21645 54.8411 4.12888 50.7257 3.25742 47.2998C2.01435 42.4131 1.60422 37.1167 2.75286 32.3135C4.31222 25.7932 5.39812 21.0544 7.62486 14.6653C7.75139 14.3024 8.12771 13.8511 8.61783 13.5425C9.10795 13.2337 9.68613 13.0841 10.0831 13.1221C10.4694 13.1594 10.9786 13.4103 11.3909 13.8049C11.8031 14.1997 12.0992 14.7231 12.178 15.1297C12.2491 15.497 12.2426 16.9107 12.1013 18.5553C11.96 20.1999 11.7229 22.167 11.4676 24.0529C10.9569 27.8249 10.3818 31.2714 10.3818 31.2714L12.4161 31.6107C12.4161 31.6107 12.9981 28.1428 13.5141 24.3318C13.772 22.4262 14.0136 20.4351 14.1599 18.733C14.3061 17.0311 14.397 15.7083 14.2083 14.734C14.0257 13.7911 13.5029 12.9644 12.8198 12.3105C12.1367 11.6563 11.2712 11.1613 10.2809 11.0662Z" fill="#FF0000"/>
<path fill-rule="evenodd" clip-rule="evenodd" d="M56.2036 13.2799C54.0085 12.9775 51.6719 13.4163 49.7372 14.4916C47.8982 15.5139 46.5558 17.2489 45.5756 18.7047C45.482 18.5764 45.4986 18.5847 45.394 18.4461C44.7896 17.6398 44.0627 16.7182 43.2628 16.1074C41.8273 15.0113 40.0961 14.1285 38.2172 13.8617C35.6514 13.4974 32.6663 13.5518 30.2371 15.0208C27.9248 16.4196 25.8956 18.8447 25.4902 21.6777C24.9306 25.5874 27.0758 29.3242 29.119 32.2246C31.2009 35.1798 35.1177 38.3033 38.5522 40.788C41.9867 43.2728 44.9379 45.0698 44.9379 45.0698C45.1203 45.1813 45.3328 45.2335 45.5461 45.219C45.7593 45.2046 45.9629 45.1243 46.1286 44.9893C46.1286 44.9893 54.0382 38.5651 57.6487 34.7047C60.0241 32.1647 63.3665 29.6475 64.5147 25.7777C65.322 23.0553 65.4603 19.636 63.7074 17.0727C62.0022 14.5804 58.8509 13.6399 56.2036 13.2757V13.2799ZM55.9251 15.3319C58.2843 15.6564 60.8631 16.5825 62 18.2443C63.2091 20.0124 63.2154 22.8945 62.5328 25.1961C61.6386 28.2101 58.6834 30.5787 56.1431 33.295C52.9541 36.7049 46.1072 42.2975 45.3859 42.8888C44.8873 42.5817 42.7888 41.309 39.7631 39.12C36.4007 36.6874 32.5635 33.5317 30.8062 31.037C28.8662 28.2832 27.1141 24.9291 27.5367 21.9767C27.8217 19.9849 29.4698 17.9054 31.3068 16.7941C33.0894 15.7162 35.6267 15.5832 37.9266 15.9095C39.3438 16.1101 40.7899 16.8216 42.0074 17.7515C42.4317 18.0754 43.1793 18.9395 43.7391 19.6865C44.2988 20.4333 44.7118 21.0679 44.7118 21.0679C44.8084 21.215 44.9408 21.3349 45.0967 21.4165C45.2525 21.4981 45.4266 21.5385 45.6024 21.5339C45.7782 21.5293 45.95 21.48 46.1014 21.3905C46.2528 21.301 46.3789 21.1742 46.4677 21.0223H46.4718C47.1923 19.7886 49.0918 17.2218 50.7424 16.3041C52.256 15.4626 54.2068 15.0982 55.9252 15.3348L55.9251 15.3319Z" fill="#FF0000"/>
</svg>
