<svg width="92" height="93" viewBox="0 0 92 93" fill="none" xmlns="http://www.w3.org/2000/svg">
<path fill-rule="evenodd" clip-rule="evenodd" d="M26.4614 49.9607V50.1622V51.8006H55.6049V49.9607H26.4614Z" fill="#FF0000"/>
<path fill-rule="evenodd" clip-rule="evenodd" d="M26.4616 57.1537V57.3551V58.9934H51.5154C52.1345 58.3312 52.7992 57.7156 53.5117 57.1537H26.4616Z" fill="#FF0000"/>
<mask id="path-3-inside-1_349_3281" fill="white">
<path fill-rule="evenodd" clip-rule="evenodd" d="M12.5124 5.93637C12.5124 31.1047 12.5124 56.273 12.5124 81.4413H49.9917C49.5719 80.8502 49.1774 80.241 48.8309 79.5997H14.3524V7.77795H67.7125V53.6287C68.3374 53.7432 68.9519 53.8859 69.5525 54.0639V5.93637H12.5124Z"/>
</mask>
<path fill-rule="evenodd" clip-rule="evenodd" d="M12.5124 5.93637C12.5124 31.1047 12.5124 56.273 12.5124 81.4413H49.9917C49.5719 80.8502 49.1774 80.241 48.8309 79.5997H14.3524V7.77795H67.7125V53.6287C68.3374 53.7432 68.9519 53.8859 69.5525 54.0639V5.93637H12.5124Z" fill="#FF0000"/>
<path d="M12.5124 5.93637V3.93637H10.5124V5.93637H12.5124ZM12.5124 81.4413H10.5124V83.4413H12.5124V81.4413ZM49.9917 81.4413V83.4413H53.865L51.6224 80.2833L49.9917 81.4413ZM48.8309 79.5997L50.5903 78.6488L50.0234 77.5997H48.8309V79.5997ZM14.3524 79.5997H12.3524V81.5997H14.3524V79.5997ZM14.3524 7.77795V5.77795H12.3524V7.77795H14.3524ZM67.7125 7.77795H69.7125V5.77795H67.7125V7.77795ZM67.7125 53.6287H65.7125V55.2957L67.3522 55.596L67.7125 53.6287ZM69.5525 54.0639L68.9839 55.9814L71.5525 56.743V54.0639H69.5525ZM69.5525 5.93637H71.5525V3.93637H69.5525V5.93637ZM10.5124 5.93637C10.5124 5.98553 10.5124 6.03468 10.5124 6.08384C10.5124 6.133 10.5124 6.18215 10.5124 6.23131C10.5124 6.28047 10.5124 6.32963 10.5124 6.37878C10.5124 6.42794 10.5124 6.4771 10.5124 6.52625C10.5124 6.57541 10.5124 6.62457 10.5124 6.67372C10.5124 6.72288 10.5124 6.77204 10.5124 6.82119C10.5124 6.87035 10.5124 6.91951 10.5124 6.96866C10.5124 7.01782 10.5124 7.06698 10.5124 7.11613C10.5124 7.16529 10.5124 7.21445 10.5124 7.2636C10.5124 7.31276 10.5124 7.36192 10.5124 7.41108C10.5124 7.46023 10.5124 7.50939 10.5124 7.55855C10.5124 7.6077 10.5124 7.65686 10.5124 7.70602C10.5124 7.75517 10.5124 7.80433 10.5124 7.85349C10.5124 7.90264 10.5124 7.9518 10.5124 8.00096C10.5124 8.05011 10.5124 8.09927 10.5124 8.14843C10.5124 8.19758 10.5124 8.24674 10.5124 8.2959C10.5124 8.34505 10.5124 8.39421 10.5124 8.44337C10.5124 8.49253 10.5124 8.54168 10.5124 8.59084C10.5124 8.64 10.5124 8.68915 10.5124 8.73831C10.5124 8.78747 10.5124 8.83662 10.5124 8.88578C10.5124 8.93494 10.5124 8.98409 10.5124 9.03325C10.5124 9.08241 10.5124 9.13156 10.5124 9.18072C10.5124 9.22988 10.5124 9.27903 10.5124 9.32819C10.5124 9.37735 10.5124 9.4265 10.5124 9.47566C10.5124 9.52482 10.5124 9.57398 10.5124 9.62313C10.5124 9.67229 10.5124 9.72145 10.5124 9.7706C10.5124 9.81976 10.5124 9.86892 10.5124 9.91807C10.5124 9.96723 10.5124 10.0164 10.5124 10.0655C10.5124 10.1147 10.5124 10.1639 10.5124 10.213C10.5124 10.2622 10.5124 10.3113 10.5124 10.3605C10.5124 10.4096 10.5124 10.4588 10.5124 10.508C10.5124 10.5571 10.5124 10.6063 10.5124 10.6554C10.5124 10.7046 10.5124 10.7537 10.5124 10.8029C10.5124 10.8521 10.5124 10.9012 10.5124 10.9504C10.5124 10.9995 10.5124 11.0487 10.5124 11.0978C10.5124 11.147 10.5124 11.1962 10.5124 11.2453C10.5124 11.2945 10.5124 11.3436 10.5124 11.3928C10.5124 11.4419 10.5124 11.4911 10.5124 11.5402C10.5124 11.5894 10.5124 11.6386 10.5124 11.6877C10.5124 11.7369 10.5124 11.786 10.5124 11.8352C10.5124 11.8843 10.5124 11.9335 10.5124 11.9827C10.5124 12.0318 10.5124 12.081 10.5124 12.1301C10.5124 12.1793 10.5124 12.2284 10.5124 12.2776C10.5124 12.3268 10.5124 12.3759 10.5124 12.4251C10.5124 12.4742 10.5124 12.5234 10.5124 12.5725C10.5124 12.6217 10.5124 12.6709 10.5124 12.72C10.5124 12.7692 10.5124 12.8183 10.5124 12.8675C10.5124 12.9166 10.5124 12.9658 10.5124 13.015C10.5124 13.0641 10.5124 13.1133 10.5124 13.1624C10.5124 13.2116 10.5124 13.2607 10.5124 13.3099C10.5124 13.3591 10.5124 13.4082 10.5124 13.4574C10.5124 13.5065 10.5124 13.5557 10.5124 13.6048C10.5124 13.654 10.5124 13.7031 10.5124 13.7523C10.5124 13.8015 10.5124 13.8506 10.5124 13.8998C10.5124 13.9489 10.5124 13.9981 10.5124 14.0472C10.5124 14.0964 10.5124 14.1456 10.5124 14.1947C10.5124 14.2439 10.5124 14.293 10.5124 14.3422C10.5124 14.3913 10.5124 14.4405 10.5124 14.4897C10.5124 14.5388 10.5124 14.588 10.5124 14.6371C10.5124 14.6863 10.5124 14.7354 10.5124 14.7846C10.5124 14.8338 10.5124 14.8829 10.5124 14.9321C10.5124 14.9812 10.5124 15.0304 10.5124 15.0795C10.5124 15.1287 10.5124 15.1779 10.5124 15.227C10.5124 15.2762 10.5124 15.3253 10.5124 15.3745C10.5124 15.4236 10.5124 15.4728 10.5124 15.522C10.5124 15.5711 10.5124 15.6203 10.5124 15.6694C10.5124 15.7186 10.5124 15.7677 10.5124 15.8169C10.5124 15.866 10.5124 15.9152 10.5124 15.9644C10.5124 16.0135 10.5124 16.0627 10.5124 16.1118C10.5124 16.161 10.5124 16.2101 10.5124 16.2593C10.5124 16.3085 10.5124 16.3576 10.5124 16.4068C10.5124 16.4559 10.5124 16.5051 10.5124 16.5542C10.5124 16.6034 10.5124 16.6526 10.5124 16.7017C10.5124 16.7509 10.5124 16.8 10.5124 16.8492C10.5124 16.8983 10.5124 16.9475 10.5124 16.9967C10.5124 17.0458 10.5124 17.095 10.5124 17.1441C10.5124 17.1933 10.5124 17.2424 10.5124 17.2916C10.5124 17.3408 10.5124 17.3899 10.5124 17.4391C10.5124 17.4882 10.5124 17.5374 10.5124 17.5865C10.5124 17.6357 10.5124 17.6849 10.5124 17.734C10.5124 17.7832 10.5124 17.8323 10.5124 17.8815C10.5124 17.9306 10.5124 17.9798 10.5124 18.029C10.5124 18.0781 10.5124 18.1273 10.5124 18.1764C10.5124 18.2256 10.5124 18.2747 10.5124 18.3239C10.5124 18.373 10.5124 18.4222 10.5124 18.4714C10.5124 18.5205 10.5124 18.5697 10.5124 18.6188C10.5124 18.668 10.5124 18.7171 10.5124 18.7663C10.5124 18.8155 10.5124 18.8646 10.5124 18.9138C10.5124 18.9629 10.5124 19.0121 10.5124 19.0612C10.5124 19.1104 10.5124 19.1596 10.5124 19.2087C10.5124 19.2579 10.5124 19.307 10.5124 19.3562C10.5124 19.4053 10.5124 19.4545 10.5124 19.5037C10.5124 19.5528 10.5124 19.602 10.5124 19.6511C10.5124 19.7003 10.5124 19.7494 10.5124 19.7986C10.5124 19.8478 10.5124 19.8969 10.5124 19.9461C10.5124 19.9952 10.5124 20.0444 10.5124 20.0935C10.5124 20.1427 10.5124 20.1919 10.5124 20.241C10.5124 20.2902 10.5124 20.3393 10.5124 20.3885C10.5124 20.4376 10.5124 20.4868 10.5124 20.536C10.5124 20.5851 10.5124 20.6343 10.5124 20.6834C10.5124 20.7326 10.5124 20.7817 10.5124 20.8309C10.5124 20.88 10.5124 20.9292 10.5124 20.9784C10.5124 21.0275 10.5124 21.0767 10.5124 21.1258C10.5124 21.175 10.5124 21.2241 10.5124 21.2733C10.5124 21.3225 10.5124 21.3716 10.5124 21.4208C10.5124 21.4699 10.5124 21.5191 10.5124 21.5682C10.5124 21.6174 10.5124 21.6666 10.5124 21.7157C10.5124 21.7649 10.5124 21.814 10.5124 21.8632C10.5124 21.9123 10.5124 21.9615 10.5124 22.0107C10.5124 22.0598 10.5124 22.109 10.5124 22.1581C10.5124 22.2073 10.5124 22.2564 10.5124 22.3056C10.5124 22.3548 10.5124 22.4039 10.5124 22.4531C10.5124 22.5022 10.5124 22.5514 10.5124 22.6005C10.5124 22.6497 10.5124 22.6989 10.5124 22.748C10.5124 22.7972 10.5124 22.8463 10.5124 22.8955C10.5124 22.9446 10.5124 22.9938 10.5124 23.043C10.5124 23.0921 10.5124 23.1413 10.5124 23.1904C10.5124 23.2396 10.5124 23.2887 10.5124 23.3379C10.5124 23.3871 10.5124 23.4362 10.5124 23.4854C10.5124 23.5345 10.5124 23.5837 10.5124 23.6328C10.5124 23.682 10.5124 23.7311 10.5124 23.7803C10.5124 23.8295 10.5124 23.8786 10.5124 23.9278C10.5124 23.9769 10.5124 24.0261 10.5124 24.0752C10.5124 24.1244 10.5124 24.1736 10.5124 24.2227C10.5124 24.2719 10.5124 24.321 10.5124 24.3702C10.5124 24.4193 10.5124 24.4685 10.5124 24.5177C10.5124 24.5668 10.5124 24.616 10.5124 24.6651C10.5124 24.7143 10.5124 24.7634 10.5124 24.8126C10.5124 24.8618 10.5124 24.9109 10.5124 24.9601C10.5124 25.0092 10.5124 25.0584 10.5124 25.1075C10.5124 25.1567 10.5124 25.2059 10.5124 25.255C10.5124 25.3042 10.5124 25.3533 10.5124 25.4025C10.5124 25.4516 10.5124 25.5008 10.5124 25.55C10.5124 25.5991 10.5124 25.6483 10.5124 25.6974C10.5124 25.7466 10.5124 25.7957 10.5124 25.8449C10.5124 25.8941 10.5124 25.9432 10.5124 25.9924C10.5124 26.0415 10.5124 26.0907 10.5124 26.1398C10.5124 26.189 10.5124 26.2381 10.5124 26.2873C10.5124 26.3365 10.5124 26.3856 10.5124 26.4348C10.5124 26.4839 10.5124 26.5331 10.5124 26.5822C10.5124 26.6314 10.5124 26.6806 10.5124 26.7297C10.5124 26.7789 10.5124 26.828 10.5124 26.8772C10.5124 26.9263 10.5124 26.9755 10.5124 27.0247C10.5124 27.0738 10.5124 27.123 10.5124 27.1721C10.5124 27.2213 10.5124 27.2704 10.5124 27.3196C10.5124 27.3688 10.5124 27.4179 10.5124 27.4671C10.5124 27.5162 10.5124 27.5654 10.5124 27.6145C10.5124 27.6637 10.5124 27.7129 10.5124 27.762C10.5124 27.8112 10.5124 27.8603 10.5124 27.9095C10.5124 27.9586 10.5124 28.0078 10.5124 28.057C10.5124 28.1061 10.5124 28.1553 10.5124 28.2044C10.5124 28.2536 10.5124 28.3027 10.5124 28.3519C10.5124 28.4011 10.5124 28.4502 10.5124 28.4994C10.5124 28.5485 10.5124 28.5977 10.5124 28.6468C10.5124 28.696 10.5124 28.7451 10.5124 28.7943C10.5124 28.8435 10.5124 28.8926 10.5124 28.9418C10.5124 28.9909 10.5124 29.0401 10.5124 29.0892C10.5124 29.1384 10.5124 29.1876 10.5124 29.2367C10.5124 29.2859 10.5124 29.335 10.5124 29.3842C10.5124 29.4333 10.5124 29.4825 10.5124 29.5317C10.5124 29.5808 10.5124 29.63 10.5124 29.6791C10.5124 29.7283 10.5124 29.7774 10.5124 29.8266C10.5124 29.8758 10.5124 29.9249 10.5124 29.9741C10.5124 30.0232 10.5124 30.0724 10.5124 30.1215C10.5124 30.1707 10.5124 30.2199 10.5124 30.269C10.5124 30.3182 10.5124 30.3673 10.5124 30.4165C10.5124 30.4656 10.5124 30.5148 10.5124 30.564C10.5124 30.6131 10.5124 30.6623 10.5124 30.7114C10.5124 30.7606 10.5124 30.8097 10.5124 30.8589C10.5124 30.9081 10.5124 30.9572 10.5124 31.0064C10.5124 31.0555 10.5124 31.1047 10.5124 31.1538C10.5124 31.203 10.5124 31.2522 10.5124 31.3013C10.5124 31.3505 10.5124 31.3996 10.5124 31.4488C10.5124 31.4979 10.5124 31.5471 10.5124 31.5962C10.5124 31.6454 10.5124 31.6946 10.5124 31.7437C10.5124 31.7929 10.5124 31.842 10.5124 31.8912C10.5124 31.9403 10.5124 31.9895 10.5124 32.0387C10.5124 32.0878 10.5124 32.137 10.5124 32.1861C10.5124 32.2353 10.5124 32.2844 10.5124 32.3336C10.5124 32.3828 10.5124 32.4319 10.5124 32.4811C10.5124 32.5302 10.5124 32.5794 10.5124 32.6285C10.5124 32.6777 10.5124 32.7269 10.5124 32.776C10.5124 32.8252 10.5124 32.8743 10.5124 32.9235C10.5124 32.9726 10.5124 33.0218 10.5124 33.071C10.5124 33.1201 10.5124 33.1693 10.5124 33.2184C10.5124 33.2676 10.5124 33.3167 10.5124 33.3659C10.5124 33.4151 10.5124 33.4642 10.5124 33.5134C10.5124 33.5625 10.5124 33.6117 10.5124 33.6608C10.5124 33.71 10.5124 33.7592 10.5124 33.8083C10.5124 33.8575 10.5124 33.9066 10.5124 33.9558C10.5124 34.0049 10.5124 34.0541 10.5124 34.1033C10.5124 34.1524 10.5124 34.2016 10.5124 34.2507C10.5124 34.2999 10.5124 34.349 10.5124 34.3982C10.5124 34.4473 10.5124 34.4965 10.5124 34.5457C10.5124 34.5948 10.5124 34.644 10.5124 34.6931C10.5124 34.7423 10.5124 34.7914 10.5124 34.8406C10.5124 34.8898 10.5124 34.9389 10.5124 34.9881C10.5124 35.0372 10.5124 35.0864 10.5124 35.1355C10.5124 35.1847 10.5124 35.2339 10.5124 35.283C10.5124 35.3322 10.5124 35.3813 10.5124 35.4305C10.5124 35.4796 10.5124 35.5288 10.5124 35.578C10.5124 35.6271 10.5124 35.6763 10.5124 35.7254C10.5124 35.7746 10.5124 35.8237 10.5124 35.8729C10.5124 35.9221 10.5124 35.9712 10.5124 36.0204C10.5124 36.0695 10.5124 36.1187 10.5124 36.1678C10.5124 36.217 10.5124 36.2662 10.5124 36.3153C10.5124 36.3645 10.5124 36.4136 10.5124 36.4628C10.5124 36.5119 10.5124 36.5611 10.5124 36.6103C10.5124 36.6594 10.5124 36.7086 10.5124 36.7577C10.5124 36.8069 10.5124 36.856 10.5124 36.9052C10.5124 36.9543 10.5124 37.0035 10.5124 37.0527C10.5124 37.1018 10.5124 37.151 10.5124 37.2001C10.5124 37.2493 10.5124 37.2984 10.5124 37.3476C10.5124 37.3968 10.5124 37.4459 10.5124 37.4951C10.5124 37.5442 10.5124 37.5934 10.5124 37.6425C10.5124 37.6917 10.5124 37.7409 10.5124 37.79C10.5124 37.8392 10.5124 37.8883 10.5124 37.9375C10.5124 37.9866 10.5124 38.0358 10.5124 38.085C10.5124 38.1341 10.5124 38.1833 10.5124 38.2324C10.5124 38.2816 10.5124 38.3307 10.5124 38.3799C10.5124 38.4291 10.5124 38.4782 10.5124 38.5274C10.5124 38.5765 10.5124 38.6257 10.5124 38.6748C10.5124 38.724 10.5124 38.7732 10.5124 38.8223C10.5124 38.8715 10.5124 38.9206 10.5124 38.9698C10.5124 39.0189 10.5124 39.0681 10.5124 39.1173C10.5124 39.1664 10.5124 39.2156 10.5124 39.2647C10.5124 39.3139 10.5124 39.363 10.5124 39.4122C10.5124 39.4614 10.5124 39.5105 10.5124 39.5597C10.5124 39.6088 10.5124 39.658 10.5124 39.7071C10.5124 39.7563 10.5124 39.8055 10.5124 39.8546C10.5124 39.9038 10.5124 39.9529 10.5124 40.0021C10.5124 40.0512 10.5124 40.1004 10.5124 40.1495C10.5124 40.1987 10.5124 40.2479 10.5124 40.297C10.5124 40.3462 10.5124 40.3953 10.5124 40.4445C10.5124 40.4936 10.5124 40.5428 10.5124 40.592C10.5124 40.6411 10.5124 40.6903 10.5124 40.7394C10.5124 40.7886 10.5124 40.8377 10.5124 40.8869C10.5124 40.9361 10.5124 40.9852 10.5124 41.0344C10.5124 41.0835 10.5124 41.1327 10.5124 41.1818C10.5124 41.231 10.5124 41.2802 10.5124 41.3293C10.5124 41.3785 10.5124 41.4276 10.5124 41.4768C10.5124 41.5259 10.5124 41.5751 10.5124 41.6243C10.5124 41.6734 10.5124 41.7226 10.5124 41.7717C10.5124 41.8209 10.5124 41.87 10.5124 41.9192C10.5124 41.9684 10.5124 42.0175 10.5124 42.0667C10.5124 42.1158 10.5124 42.165 10.5124 42.2141C10.5124 42.2633 10.5124 42.3125 10.5124 42.3616C10.5124 42.4108 10.5124 42.4599 10.5124 42.5091C10.5124 42.5582 10.5124 42.6074 10.5124 42.6566C10.5124 42.7057 10.5124 42.7549 10.5124 42.804C10.5124 42.8532 10.5124 42.9023 10.5124 42.9515C10.5124 43.0006 10.5124 43.0498 10.5124 43.099C10.5124 43.1481 10.5124 43.1973 10.5124 43.2464C10.5124 43.2956 10.5124 43.3447 10.5124 43.3939C10.5124 43.4431 10.5124 43.4922 10.5124 43.5414C10.5124 43.5905 10.5124 43.6397 10.5124 43.6888C10.5124 43.738 10.5124 43.7872 10.5124 43.8363C10.5124 43.8855 10.5124 43.9346 10.5124 43.9838C10.5124 44.0329 10.5124 44.0821 10.5124 44.1313C10.5124 44.1804 10.5124 44.2296 10.5124 44.2787C10.5124 44.3279 10.5124 44.377 10.5124 44.4262C10.5124 44.4754 10.5124 44.5245 10.5124 44.5737C10.5124 44.6228 10.5124 44.672 10.5124 44.7211C10.5124 44.7703 10.5124 44.8195 10.5124 44.8686C10.5124 44.9178 10.5124 44.9669 10.5124 45.0161C10.5124 45.0652 10.5124 45.1144 10.5124 45.1636C10.5124 45.2127 10.5124 45.2619 10.5124 45.311C10.5124 45.3602 10.5124 45.4093 10.5124 45.4585C10.5124 45.5077 10.5124 45.5568 10.5124 45.606C10.5124 45.6551 10.5124 45.7043 10.5124 45.7534C10.5124 45.8026 10.5124 45.8517 10.5124 45.9009C10.5124 45.9501 10.5124 45.9992 10.5124 46.0484C10.5124 46.0975 10.5124 46.1467 10.5124 46.1958C10.5124 46.245 10.5124 46.2942 10.5124 46.3433C10.5124 46.3925 10.5124 46.4416 10.5124 46.4908C10.5124 46.5399 10.5124 46.5891 10.5124 46.6383C10.5124 46.6874 10.5124 46.7366 10.5124 46.7857C10.5124 46.8349 10.5124 46.884 10.5124 46.9332C10.5124 46.9824 10.5124 47.0315 10.5124 47.0807C10.5124 47.1298 10.5124 47.179 10.5124 47.2281C10.5124 47.2773 10.5124 47.3265 10.5124 47.3756C10.5124 47.4248 10.5124 47.4739 10.5124 47.5231C10.5124 47.5722 10.5124 47.6214 10.5124 47.6706C10.5124 47.7197 10.5124 47.7689 10.5124 47.818C10.5124 47.8672 10.5124 47.9163 10.5124 47.9655C10.5124 48.0147 10.5124 48.0638 10.5124 48.113C10.5124 48.1621 10.5124 48.2113 10.5124 48.2604C10.5124 48.3096 10.5124 48.3587 10.5124 48.4079C10.5124 48.4571 10.5124 48.5062 10.5124 48.5554C10.5124 48.6045 10.5124 48.6537 10.5124 48.7029C10.5124 48.752 10.5124 48.8012 10.5124 48.8503C10.5124 48.8995 10.5124 48.9486 10.5124 48.9978C10.5124 49.0469 10.5124 49.0961 10.5124 49.1453C10.5124 49.1944 10.5124 49.2436 10.5124 49.2927C10.5124 49.3419 10.5124 49.391 10.5124 49.4402C10.5124 49.4894 10.5124 49.5385 10.5124 49.5877C10.5124 49.6368 10.5124 49.686 10.5124 49.7351C10.5124 49.7843 10.5124 49.8335 10.5124 49.8826C10.5124 49.9318 10.5124 49.9809 10.5124 50.0301C10.5124 50.0792 10.5124 50.1284 10.5124 50.1776C10.5124 50.2267 10.5124 50.2759 10.5124 50.325C10.5124 50.3742 10.5124 50.4233 10.5124 50.4725C10.5124 50.5217 10.5124 50.5708 10.5124 50.62C10.5124 50.6691 10.5124 50.7183 10.5124 50.7674C10.5124 50.8166 10.5124 50.8658 10.5124 50.9149C10.5124 50.9641 10.5124 51.0132 10.5124 51.0624C10.5124 51.1115 10.5124 51.1607 10.5124 51.2099C10.5124 51.259 10.5124 51.3082 10.5124 51.3573C10.5124 51.4065 10.5124 51.4556 10.5124 51.5048C10.5124 51.5539 10.5124 51.6031 10.5124 51.6523C10.5124 51.7014 10.5124 51.7506 10.5124 51.7997C10.5124 51.8489 10.5124 51.898 10.5124 51.9472C10.5124 51.9964 10.5124 52.0455 10.5124 52.0947C10.5124 52.1438 10.5124 52.193 10.5124 52.2421C10.5124 52.2913 10.5124 52.3405 10.5124 52.3896C10.5124 52.4388 10.5124 52.4879 10.5124 52.5371C10.5124 52.5862 10.5124 52.6354 10.5124 52.6846C10.5124 52.7337 10.5124 52.7829 10.5124 52.832C10.5124 52.8812 10.5124 52.9303 10.5124 52.9795C10.5124 53.0287 10.5124 53.0778 10.5124 53.127C10.5124 53.1761 10.5124 53.2253 10.5124 53.2744C10.5124 53.3236 10.5124 53.3728 10.5124 53.4219C10.5124 53.4711 10.5124 53.5202 10.5124 53.5694C10.5124 53.6185 10.5124 53.6677 10.5124 53.7169C10.5124 53.766 10.5124 53.8152 10.5124 53.8643C10.5124 53.9135 10.5124 53.9626 10.5124 54.0118C10.5124 54.061 10.5124 54.1101 10.5124 54.1593C10.5124 54.2084 10.5124 54.2576 10.5124 54.3067C10.5124 54.3559 10.5124 54.405 10.5124 54.4542C10.5124 54.5034 10.5124 54.5525 10.5124 54.6017C10.5124 54.6508 10.5124 54.7 10.5124 54.7491C10.5124 54.7983 10.5124 54.8475 10.5124 54.8966C10.5124 54.9458 10.5124 54.9949 10.5124 55.0441C10.5124 55.0932 10.5124 55.1424 10.5124 55.1916C10.5124 55.2407 10.5124 55.2899 10.5124 55.339C10.5124 55.3882 10.5124 55.4373 10.5124 55.4865C10.5124 55.5357 10.5124 55.5848 10.5124 55.634C10.5124 55.6831 10.5124 55.7323 10.5124 55.7814C10.5124 55.8306 10.5124 55.8798 10.5124 55.9289C10.5124 55.9781 10.5124 56.0272 10.5124 56.0764C10.5124 56.1255 10.5124 56.1747 10.5124 56.2239C10.5124 56.273 10.5124 56.3222 10.5124 56.3713C10.5124 56.4205 10.5124 56.4696 10.5124 56.5188C10.5124 56.568 10.5124 56.6171 10.5124 56.6663C10.5124 56.7154 10.5124 56.7646 10.5124 56.8137C10.5124 56.8629 10.5124 56.9121 10.5124 56.9612C10.5124 57.0104 10.5124 57.0595 10.5124 57.1087C10.5124 57.1578 10.5124 57.207 10.5124 57.2561C10.5124 57.3053 10.5124 57.3545 10.5124 57.4036C10.5124 57.4528 10.5124 57.5019 10.5124 57.5511C10.5124 57.6002 10.5124 57.6494 10.5124 57.6986C10.5124 57.7477 10.5124 57.7969 10.5124 57.846C10.5124 57.8952 10.5124 57.9443 10.5124 57.9935C10.5124 58.0427 10.5124 58.0918 10.5124 58.141C10.5124 58.1901 10.5124 58.2393 10.5124 58.2884C10.5124 58.3376 10.5124 58.3868 10.5124 58.4359C10.5124 58.4851 10.5124 58.5342 10.5124 58.5834C10.5124 58.6325 10.5124 58.6817 10.5124 58.7309C10.5124 58.78 10.5124 58.8292 10.5124 58.8783C10.5124 58.9275 10.5124 58.9766 10.5124 59.0258C10.5124 59.075 10.5124 59.1241 10.5124 59.1733C10.5124 59.2224 10.5124 59.2716 10.5124 59.3207C10.5124 59.3699 10.5124 59.4191 10.5124 59.4682C10.5124 59.5174 10.5124 59.5665 10.5124 59.6157C10.5124 59.6648 10.5124 59.714 10.5124 59.7631C10.5124 59.8123 10.5124 59.8615 10.5124 59.9106C10.5124 59.9598 10.5124 60.0089 10.5124 60.0581C10.5124 60.1072 10.5124 60.1564 10.5124 60.2056C10.5124 60.2547 10.5124 60.3039 10.5124 60.353C10.5124 60.4022 10.5124 60.4513 10.5124 60.5005C10.5124 60.5497 10.5124 60.5988 10.5124 60.648C10.5124 60.6971 10.5124 60.7463 10.5124 60.7954C10.5124 60.8446 10.5124 60.8938 10.5124 60.9429C10.5124 60.9921 10.5124 61.0412 10.5124 61.0904C10.5124 61.1395 10.5124 61.1887 10.5124 61.2379C10.5124 61.287 10.5124 61.3362 10.5124 61.3853C10.5124 61.4345 10.5124 61.4836 10.5124 61.5328C10.5124 61.582 10.5124 61.6311 10.5124 61.6803C10.5124 61.7294 10.5124 61.7786 10.5124 61.8277C10.5124 61.8769 10.5124 61.9261 10.5124 61.9752C10.5124 62.0244 10.5124 62.0735 10.5124 62.1227C10.5124 62.1718 10.5124 62.221 10.5124 62.2701C10.5124 62.3193 10.5124 62.3685 10.5124 62.4176C10.5124 62.4668 10.5124 62.5159 10.5124 62.5651C10.5124 62.6143 10.5124 62.6634 10.5124 62.7126C10.5124 62.7617 10.5124 62.8109 10.5124 62.86C10.5124 62.9092 10.5124 62.9583 10.5124 63.0075C10.5124 63.0567 10.5124 63.1058 10.5124 63.155C10.5124 63.2041 10.5124 63.2533 10.5124 63.3024C10.5124 63.3516 10.5124 63.4008 10.5124 63.4499C10.5124 63.4991 10.5124 63.5482 10.5124 63.5974C10.5124 63.6465 10.5124 63.6957 10.5124 63.7449C10.5124 63.794 10.5124 63.8432 10.5124 63.8923C10.5124 63.9415 10.5124 63.9906 10.5124 64.0398C10.5124 64.089 10.5124 64.1381 10.5124 64.1873C10.5124 64.2364 10.5124 64.2856 10.5124 64.3347C10.5124 64.3839 10.5124 64.4331 10.5124 64.4822C10.5124 64.5314 10.5124 64.5805 10.5124 64.6297C10.5124 64.6788 10.5124 64.728 10.5124 64.7771C10.5124 64.8263 10.5124 64.8755 10.5124 64.9246C10.5124 64.9738 10.5124 65.0229 10.5124 65.0721C10.5124 65.1213 10.5124 65.1704 10.5124 65.2196C10.5124 65.2687 10.5124 65.3179 10.5124 65.367C10.5124 65.4162 10.5124 65.4653 10.5124 65.5145C10.5124 65.5637 10.5124 65.6128 10.5124 65.662C10.5124 65.7111 10.5124 65.7603 10.5124 65.8094C10.5124 65.8586 10.5124 65.9078 10.5124 65.9569C10.5124 66.0061 10.5124 66.0552 10.5124 66.1044C10.5124 66.1535 10.5124 66.2027 10.5124 66.2519C10.5124 66.301 10.5124 66.3502 10.5124 66.3993C10.5124 66.4485 10.5124 66.4976 10.5124 66.5468C10.5124 66.596 10.5124 66.6451 10.5124 66.6943C10.5124 66.7434 10.5124 66.7926 10.5124 66.8417C10.5124 66.8909 10.5124 66.9401 10.5124 66.9892C10.5124 67.0384 10.5124 67.0875 10.5124 67.1367C10.5124 67.1858 10.5124 67.235 10.5124 67.2842C10.5124 67.3333 10.5124 67.3825 10.5124 67.4316C10.5124 67.4808 10.5124 67.5299 10.5124 67.5791C10.5124 67.6283 10.5124 67.6774 10.5124 67.7266C10.5124 67.7757 10.5124 67.8249 10.5124 67.874C10.5124 67.9232 10.5124 67.9723 10.5124 68.0215C10.5124 68.0707 10.5124 68.1198 10.5124 68.169C10.5124 68.2181 10.5124 68.2673 10.5124 68.3164C10.5124 68.3656 10.5124 68.4148 10.5124 68.4639C10.5124 68.5131 10.5124 68.5622 10.5124 68.6114C10.5124 68.6605 10.5124 68.7097 10.5124 68.7589C10.5124 68.808 10.5124 68.8572 10.5124 68.9063C10.5124 68.9555 10.5124 69.0046 10.5124 69.0538C10.5124 69.103 10.5124 69.1521 10.5124 69.2013C10.5124 69.2504 10.5124 69.2996 10.5124 69.3487C10.5124 69.3979 10.5124 69.4471 10.5124 69.4962C10.5124 69.5454 10.5124 69.5945 10.5124 69.6437C10.5124 69.6928 10.5124 69.742 10.5124 69.7911C10.5124 69.8403 10.5124 69.8895 10.5124 69.9386C10.5124 69.9878 10.5124 70.0369 10.5124 70.0861C10.5124 70.1352 10.5124 70.1844 10.5124 70.2336C10.5124 70.2827 10.5124 70.3319 10.5124 70.381C10.5124 70.4302 10.5124 70.4793 10.5124 70.5285C10.5124 70.5777 10.5124 70.6268 10.5124 70.676C10.5124 70.7251 10.5124 70.7743 10.5124 70.8234C10.5124 70.8726 10.5124 70.9218 10.5124 70.9709C10.5124 71.0201 10.5124 71.0692 10.5124 71.1184C10.5124 71.1675 10.5124 71.2167 10.5124 71.2659C10.5124 71.315 10.5124 71.3642 10.5124 71.4133C10.5124 71.4625 10.5124 71.5116 10.5124 71.5608C10.5124 71.61 10.5124 71.6591 10.5124 71.7083C10.5124 71.7574 10.5124 71.8066 10.5124 71.8557C10.5124 71.9049 10.5124 71.9541 10.5124 72.0032C10.5124 72.0524 10.5124 72.1015 10.5124 72.1507C10.5124 72.1998 10.5124 72.249 10.5124 72.2981C10.5124 72.3473 10.5124 72.3965 10.5124 72.4456C10.5124 72.4948 10.5124 72.5439 10.5124 72.5931C10.5124 72.6423 10.5124 72.6914 10.5124 72.7406C10.5124 72.7897 10.5124 72.8389 10.5124 72.888C10.5124 72.9372 10.5124 72.9863 10.5124 73.0355C10.5124 73.0847 10.5124 73.1338 10.5124 73.183C10.5124 73.2321 10.5124 73.2813 10.5124 73.3304C10.5124 73.3796 10.5124 73.4288 10.5124 73.4779C10.5124 73.5271 10.5124 73.5762 10.5124 73.6254C10.5124 73.6745 10.5124 73.7237 10.5124 73.7729C10.5124 73.822 10.5124 73.8712 10.5124 73.9203C10.5124 73.9695 10.5124 74.0186 10.5124 74.0678C10.5124 74.117 10.5124 74.1661 10.5124 74.2153C10.5124 74.2644 10.5124 74.3136 10.5124 74.3627C10.5124 74.4119 10.5124 74.4611 10.5124 74.5102C10.5124 74.5594 10.5124 74.6085 10.5124 74.6577C10.5124 74.7068 10.5124 74.756 10.5124 74.8052C10.5124 74.8543 10.5124 74.9035 10.5124 74.9526C10.5124 75.0018 10.5124 75.0509 10.5124 75.1001C10.5124 75.1492 10.5124 75.1984 10.5124 75.2476C10.5124 75.2967 10.5124 75.3459 10.5124 75.395C10.5124 75.4442 10.5124 75.4933 10.5124 75.5425C10.5124 75.5917 10.5124 75.6408 10.5124 75.69C10.5124 75.7391 10.5124 75.7883 10.5124 75.8374C10.5124 75.8866 10.5124 75.9358 10.5124 75.9849C10.5124 76.0341 10.5124 76.0832 10.5124 76.1324C10.5124 76.1815 10.5124 76.2307 10.5124 76.2799C10.5124 76.329 10.5124 76.3782 10.5124 76.4273C10.5124 76.4765 10.5124 76.5256 10.5124 76.5748C10.5124 76.624 10.5124 76.6731 10.5124 76.7223C10.5124 76.7714 10.5124 76.8206 10.5124 76.8697C10.5124 76.9189 10.5124 76.968 10.5124 77.0172C10.5124 77.0664 10.5124 77.1155 10.5124 77.1647C10.5124 77.2138 10.5124 77.263 10.5124 77.3121C10.5124 77.3613 10.5124 77.4105 10.5124 77.4596C10.5124 77.5088 10.5124 77.5579 10.5124 77.6071C10.5124 77.6562 10.5124 77.7054 10.5124 77.7546C10.5124 77.8037 10.5124 77.8529 10.5124 77.902C10.5124 77.9512 10.5124 78.0003 10.5124 78.0495C10.5124 78.0987 10.5124 78.1478 10.5124 78.197C10.5124 78.2461 10.5124 78.2953 10.5124 78.3444C10.5124 78.3936 10.5124 78.4428 10.5124 78.4919C10.5124 78.5411 10.5124 78.5902 10.5124 78.6394C10.5124 78.6885 10.5124 78.7377 10.5124 78.7868C10.5124 78.836 10.5124 78.8852 10.5124 78.9343C10.5124 78.9835 10.5124 79.0326 10.5124 79.0818C10.5124 79.131 10.5124 79.1801 10.5124 79.2293C10.5124 79.2784 10.5124 79.3276 10.5124 79.3767C10.5124 79.4259 10.5124 79.475 10.5124 79.5242C10.5124 79.5734 10.5124 79.6225 10.5124 79.6717C10.5124 79.7208 10.5124 79.77 10.5124 79.8191C10.5124 79.8683 10.5124 79.9175 10.5124 79.9666C10.5124 80.0158 10.5124 80.0649 10.5124 80.1141C10.5124 80.1632 10.5124 80.2124 10.5124 80.2616C10.5124 80.3107 10.5124 80.3599 10.5124 80.409C10.5124 80.4582 10.5124 80.5073 10.5124 80.5565C10.5124 80.6057 10.5124 80.6548 10.5124 80.704C10.5124 80.7531 10.5124 80.8023 10.5124 80.8514C10.5124 80.9006 10.5124 80.9498 10.5124 80.9989C10.5124 81.0481 10.5124 81.0972 10.5124 81.1464C10.5124 81.1955 10.5124 81.2447 10.5124 81.2938C10.5124 81.343 10.5124 81.3922 10.5124 81.4413H14.5124C14.5124 81.3922 14.5124 81.343 14.5124 81.2938C14.5124 81.2447 14.5124 81.1955 14.5124 81.1464C14.5124 81.0972 14.5124 81.0481 14.5124 80.9989C14.5124 80.9498 14.5124 80.9006 14.5124 80.8514C14.5124 80.8023 14.5124 80.7531 14.5124 80.704C14.5124 80.6548 14.5124 80.6057 14.5124 80.5565C14.5124 80.5073 14.5124 80.4582 14.5124 80.409C14.5124 80.3599 14.5124 80.3107 14.5124 80.2616C14.5124 80.2124 14.5124 80.1632 14.5124 80.1141C14.5124 80.0649 14.5124 80.0158 14.5124 79.9666C14.5124 79.9175 14.5124 79.8683 14.5124 79.8191C14.5124 79.77 14.5124 79.7208 14.5124 79.6717C14.5124 79.6225 14.5124 79.5734 14.5124 79.5242C14.5124 79.475 14.5124 79.4259 14.5124 79.3767C14.5124 79.3276 14.5124 79.2784 14.5124 79.2293C14.5124 79.1801 14.5124 79.131 14.5124 79.0818C14.5124 79.0326 14.5124 78.9835 14.5124 78.9343C14.5124 78.8852 14.5124 78.836 14.5124 78.7868C14.5124 78.7377 14.5124 78.6885 14.5124 78.6394C14.5124 78.5902 14.5124 78.5411 14.5124 78.4919C14.5124 78.4428 14.5124 78.3936 14.5124 78.3444C14.5124 78.2953 14.5124 78.2461 14.5124 78.197C14.5124 78.1478 14.5124 78.0987 14.5124 78.0495C14.5124 78.0003 14.5124 77.9512 14.5124 77.902C14.5124 77.8529 14.5124 77.8037 14.5124 77.7546C14.5124 77.7054 14.5124 77.6562 14.5124 77.6071C14.5124 77.5579 14.5124 77.5088 14.5124 77.4596C14.5124 77.4105 14.5124 77.3613 14.5124 77.3121C14.5124 77.263 14.5124 77.2138 14.5124 77.1647C14.5124 77.1155 14.5124 77.0664 14.5124 77.0172C14.5124 76.968 14.5124 76.9189 14.5124 76.8697C14.5124 76.8206 14.5124 76.7714 14.5124 76.7223C14.5124 76.6731 14.5124 76.624 14.5124 76.5748C14.5124 76.5256 14.5124 76.4765 14.5124 76.4273C14.5124 76.3782 14.5124 76.329 14.5124 76.2799C14.5124 76.2307 14.5124 76.1815 14.5124 76.1324C14.5124 76.0832 14.5124 76.0341 14.5124 75.9849C14.5124 75.9358 14.5124 75.8866 14.5124 75.8374C14.5124 75.7883 14.5124 75.7391 14.5124 75.69C14.5124 75.6408 14.5124 75.5917 14.5124 75.5425C14.5124 75.4933 14.5124 75.4442 14.5124 75.395C14.5124 75.3459 14.5124 75.2967 14.5124 75.2476C14.5124 75.1984 14.5124 75.1492 14.5124 75.1001C14.5124 75.0509 14.5124 75.0018 14.5124 74.9526C14.5124 74.9035 14.5124 74.8543 14.5124 74.8052C14.5124 74.756 14.5124 74.7068 14.5124 74.6577C14.5124 74.6085 14.5124 74.5594 14.5124 74.5102C14.5124 74.4611 14.5124 74.4119 14.5124 74.3627C14.5124 74.3136 14.5124 74.2644 14.5124 74.2153C14.5124 74.1661 14.5124 74.117 14.5124 74.0678C14.5124 74.0186 14.5124 73.9695 14.5124 73.9203C14.5124 73.8712 14.5124 73.822 14.5124 73.7729C14.5124 73.7237 14.5124 73.6745 14.5124 73.6254C14.5124 73.5762 14.5124 73.5271 14.5124 73.4779C14.5124 73.4288 14.5124 73.3796 14.5124 73.3304C14.5124 73.2813 14.5124 73.2321 14.5124 73.183C14.5124 73.1338 14.5124 73.0847 14.5124 73.0355C14.5124 72.9863 14.5124 72.9372 14.5124 72.888C14.5124 72.8389 14.5124 72.7897 14.5124 72.7406C14.5124 72.6914 14.5124 72.6423 14.5124 72.5931C14.5124 72.5439 14.5124 72.4948 14.5124 72.4456C14.5124 72.3965 14.5124 72.3473 14.5124 72.2981C14.5124 72.249 14.5124 72.1998 14.5124 72.1507C14.5124 72.1015 14.5124 72.0524 14.5124 72.0032C14.5124 71.9541 14.5124 71.9049 14.5124 71.8557C14.5124 71.8066 14.5124 71.7574 14.5124 71.7083C14.5124 71.6591 14.5124 71.61 14.5124 71.5608C14.5124 71.5116 14.5124 71.4625 14.5124 71.4133C14.5124 71.3642 14.5124 71.315 14.5124 71.2659C14.5124 71.2167 14.5124 71.1675 14.5124 71.1184C14.5124 71.0692 14.5124 71.0201 14.5124 70.9709C14.5124 70.9218 14.5124 70.8726 14.5124 70.8234C14.5124 70.7743 14.5124 70.7251 14.5124 70.676C14.5124 70.6268 14.5124 70.5777 14.5124 70.5285C14.5124 70.4793 14.5124 70.4302 14.5124 70.381C14.5124 70.3319 14.5124 70.2827 14.5124 70.2336C14.5124 70.1844 14.5124 70.1352 14.5124 70.0861C14.5124 70.0369 14.5124 69.9878 14.5124 69.9386C14.5124 69.8895 14.5124 69.8403 14.5124 69.7911C14.5124 69.742 14.5124 69.6928 14.5124 69.6437C14.5124 69.5945 14.5124 69.5454 14.5124 69.4962C14.5124 69.4471 14.5124 69.3979 14.5124 69.3487C14.5124 69.2996 14.5124 69.2504 14.5124 69.2013C14.5124 69.1521 14.5124 69.103 14.5124 69.0538C14.5124 69.0046 14.5124 68.9555 14.5124 68.9063C14.5124 68.8572 14.5124 68.808 14.5124 68.7589C14.5124 68.7097 14.5124 68.6605 14.5124 68.6114C14.5124 68.5622 14.5124 68.5131 14.5124 68.4639C14.5124 68.4148 14.5124 68.3656 14.5124 68.3164C14.5124 68.2673 14.5124 68.2181 14.5124 68.169C14.5124 68.1198 14.5124 68.0707 14.5124 68.0215C14.5124 67.9723 14.5124 67.9232 14.5124 67.874C14.5124 67.8249 14.5124 67.7757 14.5124 67.7266C14.5124 67.6774 14.5124 67.6283 14.5124 67.5791C14.5124 67.5299 14.5124 67.4808 14.5124 67.4316C14.5124 67.3825 14.5124 67.3333 14.5124 67.2842C14.5124 67.235 14.5124 67.1858 14.5124 67.1367C14.5124 67.0875 14.5124 67.0384 14.5124 66.9892C14.5124 66.9401 14.5124 66.8909 14.5124 66.8417C14.5124 66.7926 14.5124 66.7434 14.5124 66.6943C14.5124 66.6451 14.5124 66.596 14.5124 66.5468C14.5124 66.4976 14.5124 66.4485 14.5124 66.3993C14.5124 66.3502 14.5124 66.301 14.5124 66.2519C14.5124 66.2027 14.5124 66.1535 14.5124 66.1044C14.5124 66.0552 14.5124 66.0061 14.5124 65.9569C14.5124 65.9078 14.5124 65.8586 14.5124 65.8094C14.5124 65.7603 14.5124 65.7111 14.5124 65.662C14.5124 65.6128 14.5124 65.5637 14.5124 65.5145C14.5124 65.4653 14.5124 65.4162 14.5124 65.367C14.5124 65.3179 14.5124 65.2687 14.5124 65.2196C14.5124 65.1704 14.5124 65.1213 14.5124 65.0721C14.5124 65.0229 14.5124 64.9738 14.5124 64.9246C14.5124 64.8755 14.5124 64.8263 14.5124 64.7771C14.5124 64.728 14.5124 64.6788 14.5124 64.6297C14.5124 64.5805 14.5124 64.5314 14.5124 64.4822C14.5124 64.4331 14.5124 64.3839 14.5124 64.3347C14.5124 64.2856 14.5124 64.2364 14.5124 64.1873C14.5124 64.1381 14.5124 64.089 14.5124 64.0398C14.5124 63.9906 14.5124 63.9415 14.5124 63.8923C14.5124 63.8432 14.5124 63.794 14.5124 63.7449C14.5124 63.6957 14.5124 63.6465 14.5124 63.5974C14.5124 63.5482 14.5124 63.4991 14.5124 63.4499C14.5124 63.4008 14.5124 63.3516 14.5124 63.3024C14.5124 63.2533 14.5124 63.2041 14.5124 63.155C14.5124 63.1058 14.5124 63.0567 14.5124 63.0075C14.5124 62.9583 14.5124 62.9092 14.5124 62.86C14.5124 62.8109 14.5124 62.7617 14.5124 62.7126C14.5124 62.6634 14.5124 62.6143 14.5124 62.5651C14.5124 62.5159 14.5124 62.4668 14.5124 62.4176C14.5124 62.3685 14.5124 62.3193 14.5124 62.2701C14.5124 62.221 14.5124 62.1718 14.5124 62.1227C14.5124 62.0735 14.5124 62.0244 14.5124 61.9752C14.5124 61.9261 14.5124 61.8769 14.5124 61.8277C14.5124 61.7786 14.5124 61.7294 14.5124 61.6803C14.5124 61.6311 14.5124 61.582 14.5124 61.5328C14.5124 61.4836 14.5124 61.4345 14.5124 61.3853C14.5124 61.3362 14.5124 61.287 14.5124 61.2379C14.5124 61.1887 14.5124 61.1395 14.5124 61.0904C14.5124 61.0412 14.5124 60.9921 14.5124 60.9429C14.5124 60.8938 14.5124 60.8446 14.5124 60.7954C14.5124 60.7463 14.5124 60.6971 14.5124 60.648C14.5124 60.5988 14.5124 60.5497 14.5124 60.5005C14.5124 60.4513 14.5124 60.4022 14.5124 60.353C14.5124 60.3039 14.5124 60.2547 14.5124 60.2056C14.5124 60.1564 14.5124 60.1072 14.5124 60.0581C14.5124 60.0089 14.5124 59.9598 14.5124 59.9106C14.5124 59.8615 14.5124 59.8123 14.5124 59.7631C14.5124 59.714 14.5124 59.6648 14.5124 59.6157C14.5124 59.5665 14.5124 59.5174 14.5124 59.4682C14.5124 59.4191 14.5124 59.3699 14.5124 59.3207C14.5124 59.2716 14.5124 59.2224 14.5124 59.1733C14.5124 59.1241 14.5124 59.075 14.5124 59.0258C14.5124 58.9766 14.5124 58.9275 14.5124 58.8783C14.5124 58.8292 14.5124 58.78 14.5124 58.7309C14.5124 58.6817 14.5124 58.6325 14.5124 58.5834C14.5124 58.5342 14.5124 58.4851 14.5124 58.4359C14.5124 58.3868 14.5124 58.3376 14.5124 58.2884C14.5124 58.2393 14.5124 58.1901 14.5124 58.141C14.5124 58.0918 14.5124 58.0427 14.5124 57.9935C14.5124 57.9443 14.5124 57.8952 14.5124 57.846C14.5124 57.7969 14.5124 57.7477 14.5124 57.6986C14.5124 57.6494 14.5124 57.6002 14.5124 57.5511C14.5124 57.5019 14.5124 57.4528 14.5124 57.4036C14.5124 57.3545 14.5124 57.3053 14.5124 57.2561C14.5124 57.207 14.5124 57.1578 14.5124 57.1087C14.5124 57.0595 14.5124 57.0104 14.5124 56.9612C14.5124 56.9121 14.5124 56.8629 14.5124 56.8137C14.5124 56.7646 14.5124 56.7154 14.5124 56.6663C14.5124 56.6171 14.5124 56.568 14.5124 56.5188C14.5124 56.4696 14.5124 56.4205 14.5124 56.3713C14.5124 56.3222 14.5124 56.273 14.5124 56.2239C14.5124 56.1747 14.5124 56.1255 14.5124 56.0764C14.5124 56.0272 14.5124 55.9781 14.5124 55.9289C14.5124 55.8798 14.5124 55.8306 14.5124 55.7814C14.5124 55.7323 14.5124 55.6831 14.5124 55.634C14.5124 55.5848 14.5124 55.5357 14.5124 55.4865C14.5124 55.4373 14.5124 55.3882 14.5124 55.339C14.5124 55.2899 14.5124 55.2407 14.5124 55.1916C14.5124 55.1424 14.5124 55.0932 14.5124 55.0441C14.5124 54.9949 14.5124 54.9458 14.5124 54.8966C14.5124 54.8475 14.5124 54.7983 14.5124 54.7491C14.5124 54.7 14.5124 54.6508 14.5124 54.6017C14.5124 54.5525 14.5124 54.5034 14.5124 54.4542C14.5124 54.405 14.5124 54.3559 14.5124 54.3067C14.5124 54.2576 14.5124 54.2084 14.5124 54.1593C14.5124 54.1101 14.5124 54.061 14.5124 54.0118C14.5124 53.9626 14.5124 53.9135 14.5124 53.8643C14.5124 53.8152 14.5124 53.766 14.5124 53.7169C14.5124 53.6677 14.5124 53.6185 14.5124 53.5694C14.5124 53.5202 14.5124 53.4711 14.5124 53.4219C14.5124 53.3728 14.5124 53.3236 14.5124 53.2744C14.5124 53.2253 14.5124 53.1761 14.5124 53.127C14.5124 53.0778 14.5124 53.0287 14.5124 52.9795C14.5124 52.9303 14.5124 52.8812 14.5124 52.832C14.5124 52.7829 14.5124 52.7337 14.5124 52.6846C14.5124 52.6354 14.5124 52.5862 14.5124 52.5371C14.5124 52.4879 14.5124 52.4388 14.5124 52.3896C14.5124 52.3405 14.5124 52.2913 14.5124 52.2421C14.5124 52.193 14.5124 52.1438 14.5124 52.0947C14.5124 52.0455 14.5124 51.9964 14.5124 51.9472C14.5124 51.898 14.5124 51.8489 14.5124 51.7997C14.5124 51.7506 14.5124 51.7014 14.5124 51.6523C14.5124 51.6031 14.5124 51.5539 14.5124 51.5048C14.5124 51.4556 14.5124 51.4065 14.5124 51.3573C14.5124 51.3082 14.5124 51.259 14.5124 51.2099C14.5124 51.1607 14.5124 51.1115 14.5124 51.0624C14.5124 51.0132 14.5124 50.9641 14.5124 50.9149C14.5124 50.8658 14.5124 50.8166 14.5124 50.7674C14.5124 50.7183 14.5124 50.6691 14.5124 50.62C14.5124 50.5708 14.5124 50.5217 14.5124 50.4725C14.5124 50.4233 14.5124 50.3742 14.5124 50.325C14.5124 50.2759 14.5124 50.2267 14.5124 50.1776C14.5124 50.1284 14.5124 50.0792 14.5124 50.0301C14.5124 49.9809 14.5124 49.9318 14.5124 49.8826C14.5124 49.8335 14.5124 49.7843 14.5124 49.7351C14.5124 49.686 14.5124 49.6368 14.5124 49.5877C14.5124 49.5385 14.5124 49.4894 14.5124 49.4402C14.5124 49.391 14.5124 49.3419 14.5124 49.2927C14.5124 49.2436 14.5124 49.1944 14.5124 49.1453C14.5124 49.0961 14.5124 49.0469 14.5124 48.9978C14.5124 48.9486 14.5124 48.8995 14.5124 48.8503C14.5124 48.8012 14.5124 48.752 14.5124 48.7029C14.5124 48.6537 14.5124 48.6045 14.5124 48.5554C14.5124 48.5062 14.5124 48.4571 14.5124 48.4079C14.5124 48.3587 14.5124 48.3096 14.5124 48.2604C14.5124 48.2113 14.5124 48.1621 14.5124 48.113C14.5124 48.0638 14.5124 48.0147 14.5124 47.9655C14.5124 47.9163 14.5124 47.8672 14.5124 47.818C14.5124 47.7689 14.5124 47.7197 14.5124 47.6706C14.5124 47.6214 14.5124 47.5722 14.5124 47.5231C14.5124 47.4739 14.5124 47.4248 14.5124 47.3756C14.5124 47.3265 14.5124 47.2773 14.5124 47.2281C14.5124 47.179 14.5124 47.1298 14.5124 47.0807C14.5124 47.0315 14.5124 46.9824 14.5124 46.9332C14.5124 46.884 14.5124 46.8349 14.5124 46.7857C14.5124 46.7366 14.5124 46.6874 14.5124 46.6383C14.5124 46.5891 14.5124 46.5399 14.5124 46.4908C14.5124 46.4416 14.5124 46.3925 14.5124 46.3433C14.5124 46.2942 14.5124 46.245 14.5124 46.1958C14.5124 46.1467 14.5124 46.0975 14.5124 46.0484C14.5124 45.9992 14.5124 45.9501 14.5124 45.9009C14.5124 45.8517 14.5124 45.8026 14.5124 45.7534C14.5124 45.7043 14.5124 45.6551 14.5124 45.606C14.5124 45.5568 14.5124 45.5077 14.5124 45.4585C14.5124 45.4093 14.5124 45.3602 14.5124 45.311C14.5124 45.2619 14.5124 45.2127 14.5124 45.1636C14.5124 45.1144 14.5124 45.0652 14.5124 45.0161C14.5124 44.9669 14.5124 44.9178 14.5124 44.8686C14.5124 44.8195 14.5124 44.7703 14.5124 44.7211C14.5124 44.672 14.5124 44.6228 14.5124 44.5737C14.5124 44.5245 14.5124 44.4754 14.5124 44.4262C14.5124 44.377 14.5124 44.3279 14.5124 44.2787C14.5124 44.2296 14.5124 44.1804 14.5124 44.1313C14.5124 44.0821 14.5124 44.0329 14.5124 43.9838C14.5124 43.9346 14.5124 43.8855 14.5124 43.8363C14.5124 43.7872 14.5124 43.738 14.5124 43.6888C14.5124 43.6397 14.5124 43.5905 14.5124 43.5414C14.5124 43.4922 14.5124 43.4431 14.5124 43.3939C14.5124 43.3447 14.5124 43.2956 14.5124 43.2464C14.5124 43.1973 14.5124 43.1481 14.5124 43.099C14.5124 43.0498 14.5124 43.0006 14.5124 42.9515C14.5124 42.9023 14.5124 42.8532 14.5124 42.804C14.5124 42.7549 14.5124 42.7057 14.5124 42.6566C14.5124 42.6074 14.5124 42.5582 14.5124 42.5091C14.5124 42.4599 14.5124 42.4108 14.5124 42.3616C14.5124 42.3125 14.5124 42.2633 14.5124 42.2141C14.5124 42.165 14.5124 42.1158 14.5124 42.0667C14.5124 42.0175 14.5124 41.9684 14.5124 41.9192C14.5124 41.87 14.5124 41.8209 14.5124 41.7717C14.5124 41.7226 14.5124 41.6734 14.5124 41.6243C14.5124 41.5751 14.5124 41.5259 14.5124 41.4768C14.5124 41.4276 14.5124 41.3785 14.5124 41.3293C14.5124 41.2802 14.5124 41.231 14.5124 41.1818C14.5124 41.1327 14.5124 41.0835 14.5124 41.0344C14.5124 40.9852 14.5124 40.9361 14.5124 40.8869C14.5124 40.8377 14.5124 40.7886 14.5124 40.7394C14.5124 40.6903 14.5124 40.6411 14.5124 40.592C14.5124 40.5428 14.5124 40.4936 14.5124 40.4445C14.5124 40.3953 14.5124 40.3462 14.5124 40.297C14.5124 40.2479 14.5124 40.1987 14.5124 40.1495C14.5124 40.1004 14.5124 40.0512 14.5124 40.0021C14.5124 39.9529 14.5124 39.9038 14.5124 39.8546C14.5124 39.8055 14.5124 39.7563 14.5124 39.7071C14.5124 39.658 14.5124 39.6088 14.5124 39.5597C14.5124 39.5105 14.5124 39.4614 14.5124 39.4122C14.5124 39.363 14.5124 39.3139 14.5124 39.2647C14.5124 39.2156 14.5124 39.1664 14.5124 39.1173C14.5124 39.0681 14.5124 39.0189 14.5124 38.9698C14.5124 38.9206 14.5124 38.8715 14.5124 38.8223C14.5124 38.7732 14.5124 38.724 14.5124 38.6748C14.5124 38.6257 14.5124 38.5765 14.5124 38.5274C14.5124 38.4782 14.5124 38.4291 14.5124 38.3799C14.5124 38.3307 14.5124 38.2816 14.5124 38.2324C14.5124 38.1833 14.5124 38.1341 14.5124 38.085C14.5124 38.0358 14.5124 37.9866 14.5124 37.9375C14.5124 37.8883 14.5124 37.8392 14.5124 37.79C14.5124 37.7409 14.5124 37.6917 14.5124 37.6425C14.5124 37.5934 14.5124 37.5442 14.5124 37.4951C14.5124 37.4459 14.5124 37.3968 14.5124 37.3476C14.5124 37.2984 14.5124 37.2493 14.5124 37.2001C14.5124 37.151 14.5124 37.1018 14.5124 37.0527C14.5124 37.0035 14.5124 36.9543 14.5124 36.9052C14.5124 36.856 14.5124 36.8069 14.5124 36.7577C14.5124 36.7086 14.5124 36.6594 14.5124 36.6103C14.5124 36.5611 14.5124 36.5119 14.5124 36.4628C14.5124 36.4136 14.5124 36.3645 14.5124 36.3153C14.5124 36.2662 14.5124 36.217 14.5124 36.1678C14.5124 36.1187 14.5124 36.0695 14.5124 36.0204C14.5124 35.9712 14.5124 35.9221 14.5124 35.8729C14.5124 35.8237 14.5124 35.7746 14.5124 35.7254C14.5124 35.6763 14.5124 35.6271 14.5124 35.578C14.5124 35.5288 14.5124 35.4796 14.5124 35.4305C14.5124 35.3813 14.5124 35.3322 14.5124 35.283C14.5124 35.2339 14.5124 35.1847 14.5124 35.1355C14.5124 35.0864 14.5124 35.0372 14.5124 34.9881C14.5124 34.9389 14.5124 34.8898 14.5124 34.8406C14.5124 34.7914 14.5124 34.7423 14.5124 34.6931C14.5124 34.644 14.5124 34.5948 14.5124 34.5457C14.5124 34.4965 14.5124 34.4473 14.5124 34.3982C14.5124 34.349 14.5124 34.2999 14.5124 34.2507C14.5124 34.2016 14.5124 34.1524 14.5124 34.1033C14.5124 34.0541 14.5124 34.0049 14.5124 33.9558C14.5124 33.9066 14.5124 33.8575 14.5124 33.8083C14.5124 33.7592 14.5124 33.71 14.5124 33.6608C14.5124 33.6117 14.5124 33.5625 14.5124 33.5134C14.5124 33.4642 14.5124 33.4151 14.5124 33.3659C14.5124 33.3167 14.5124 33.2676 14.5124 33.2184C14.5124 33.1693 14.5124 33.1201 14.5124 33.071C14.5124 33.0218 14.5124 32.9726 14.5124 32.9235C14.5124 32.8743 14.5124 32.8252 14.5124 32.776C14.5124 32.7269 14.5124 32.6777 14.5124 32.6285C14.5124 32.5794 14.5124 32.5302 14.5124 32.4811C14.5124 32.4319 14.5124 32.3828 14.5124 32.3336C14.5124 32.2844 14.5124 32.2353 14.5124 32.1861C14.5124 32.137 14.5124 32.0878 14.5124 32.0387C14.5124 31.9895 14.5124 31.9403 14.5124 31.8912C14.5124 31.842 14.5124 31.7929 14.5124 31.7437C14.5124 31.6946 14.5124 31.6454 14.5124 31.5962C14.5124 31.5471 14.5124 31.4979 14.5124 31.4488C14.5124 31.3996 14.5124 31.3505 14.5124 31.3013C14.5124 31.2522 14.5124 31.203 14.5124 31.1538C14.5124 31.1047 14.5124 31.0555 14.5124 31.0064C14.5124 30.9572 14.5124 30.9081 14.5124 30.8589C14.5124 30.8097 14.5124 30.7606 14.5124 30.7114C14.5124 30.6623 14.5124 30.6131 14.5124 30.564C14.5124 30.5148 14.5124 30.4656 14.5124 30.4165C14.5124 30.3673 14.5124 30.3182 14.5124 30.269C14.5124 30.2199 14.5124 30.1707 14.5124 30.1215C14.5124 30.0724 14.5124 30.0232 14.5124 29.9741C14.5124 29.9249 14.5124 29.8758 14.5124 29.8266C14.5124 29.7774 14.5124 29.7283 14.5124 29.6791C14.5124 29.63 14.5124 29.5808 14.5124 29.5317C14.5124 29.4825 14.5124 29.4333 14.5124 29.3842C14.5124 29.335 14.5124 29.2859 14.5124 29.2367C14.5124 29.1876 14.5124 29.1384 14.5124 29.0892C14.5124 29.0401 14.5124 28.9909 14.5124 28.9418C14.5124 28.8926 14.5124 28.8435 14.5124 28.7943C14.5124 28.7451 14.5124 28.696 14.5124 28.6468C14.5124 28.5977 14.5124 28.5485 14.5124 28.4994C14.5124 28.4502 14.5124 28.4011 14.5124 28.3519C14.5124 28.3027 14.5124 28.2536 14.5124 28.2044C14.5124 28.1553 14.5124 28.1061 14.5124 28.057C14.5124 28.0078 14.5124 27.9586 14.5124 27.9095C14.5124 27.8603 14.5124 27.8112 14.5124 27.762C14.5124 27.7129 14.5124 27.6637 14.5124 27.6145C14.5124 27.5654 14.5124 27.5162 14.5124 27.4671C14.5124 27.4179 14.5124 27.3688 14.5124 27.3196C14.5124 27.2704 14.5124 27.2213 14.5124 27.1721C14.5124 27.123 14.5124 27.0738 14.5124 27.0247C14.5124 26.9755 14.5124 26.9263 14.5124 26.8772C14.5124 26.828 14.5124 26.7789 14.5124 26.7297C14.5124 26.6806 14.5124 26.6314 14.5124 26.5822C14.5124 26.5331 14.5124 26.4839 14.5124 26.4348C14.5124 26.3856 14.5124 26.3365 14.5124 26.2873C14.5124 26.2381 14.5124 26.189 14.5124 26.1398C14.5124 26.0907 14.5124 26.0415 14.5124 25.9924C14.5124 25.9432 14.5124 25.8941 14.5124 25.8449C14.5124 25.7957 14.5124 25.7466 14.5124 25.6974C14.5124 25.6483 14.5124 25.5991 14.5124 25.55C14.5124 25.5008 14.5124 25.4516 14.5124 25.4025C14.5124 25.3533 14.5124 25.3042 14.5124 25.255C14.5124 25.2059 14.5124 25.1567 14.5124 25.1075C14.5124 25.0584 14.5124 25.0092 14.5124 24.9601C14.5124 24.9109 14.5124 24.8618 14.5124 24.8126C14.5124 24.7634 14.5124 24.7143 14.5124 24.6651C14.5124 24.616 14.5124 24.5668 14.5124 24.5177C14.5124 24.4685 14.5124 24.4193 14.5124 24.3702C14.5124 24.321 14.5124 24.2719 14.5124 24.2227C14.5124 24.1736 14.5124 24.1244 14.5124 24.0752C14.5124 24.0261 14.5124 23.9769 14.5124 23.9278C14.5124 23.8786 14.5124 23.8295 14.5124 23.7803C14.5124 23.7311 14.5124 23.682 14.5124 23.6328C14.5124 23.5837 14.5124 23.5345 14.5124 23.4854C14.5124 23.4362 14.5124 23.3871 14.5124 23.3379C14.5124 23.2887 14.5124 23.2396 14.5124 23.1904C14.5124 23.1413 14.5124 23.0921 14.5124 23.043C14.5124 22.9938 14.5124 22.9446 14.5124 22.8955C14.5124 22.8463 14.5124 22.7972 14.5124 22.748C14.5124 22.6989 14.5124 22.6497 14.5124 22.6005C14.5124 22.5514 14.5124 22.5022 14.5124 22.4531C14.5124 22.4039 14.5124 22.3548 14.5124 22.3056C14.5124 22.2564 14.5124 22.2073 14.5124 22.1581C14.5124 22.109 14.5124 22.0598 14.5124 22.0107C14.5124 21.9615 14.5124 21.9123 14.5124 21.8632C14.5124 21.814 14.5124 21.7649 14.5124 21.7157C14.5124 21.6666 14.5124 21.6174 14.5124 21.5682C14.5124 21.5191 14.5124 21.4699 14.5124 21.4208C14.5124 21.3716 14.5124 21.3225 14.5124 21.2733C14.5124 21.2241 14.5124 21.175 14.5124 21.1258C14.5124 21.0767 14.5124 21.0275 14.5124 20.9784C14.5124 20.9292 14.5124 20.88 14.5124 20.8309C14.5124 20.7817 14.5124 20.7326 14.5124 20.6834C14.5124 20.6343 14.5124 20.5851 14.5124 20.536C14.5124 20.4868 14.5124 20.4376 14.5124 20.3885C14.5124 20.3393 14.5124 20.2902 14.5124 20.241C14.5124 20.1919 14.5124 20.1427 14.5124 20.0935C14.5124 20.0444 14.5124 19.9952 14.5124 19.9461C14.5124 19.8969 14.5124 19.8478 14.5124 19.7986C14.5124 19.7494 14.5124 19.7003 14.5124 19.6511C14.5124 19.602 14.5124 19.5528 14.5124 19.5037C14.5124 19.4545 14.5124 19.4053 14.5124 19.3562C14.5124 19.307 14.5124 19.2579 14.5124 19.2087C14.5124 19.1596 14.5124 19.1104 14.5124 19.0612C14.5124 19.0121 14.5124 18.9629 14.5124 18.9138C14.5124 18.8646 14.5124 18.8155 14.5124 18.7663C14.5124 18.7171 14.5124 18.668 14.5124 18.6188C14.5124 18.5697 14.5124 18.5205 14.5124 18.4714C14.5124 18.4222 14.5124 18.373 14.5124 18.3239C14.5124 18.2747 14.5124 18.2256 14.5124 18.1764C14.5124 18.1273 14.5124 18.0781 14.5124 18.029C14.5124 17.9798 14.5124 17.9306 14.5124 17.8815C14.5124 17.8323 14.5124 17.7832 14.5124 17.734C14.5124 17.6849 14.5124 17.6357 14.5124 17.5865C14.5124 17.5374 14.5124 17.4882 14.5124 17.4391C14.5124 17.3899 14.5124 17.3408 14.5124 17.2916C14.5124 17.2424 14.5124 17.1933 14.5124 17.1441C14.5124 17.095 14.5124 17.0458 14.5124 16.9967C14.5124 16.9475 14.5124 16.8983 14.5124 16.8492C14.5124 16.8 14.5124 16.7509 14.5124 16.7017C14.5124 16.6526 14.5124 16.6034 14.5124 16.5542C14.5124 16.5051 14.5124 16.4559 14.5124 16.4068C14.5124 16.3576 14.5124 16.3085 14.5124 16.2593C14.5124 16.2101 14.5124 16.161 14.5124 16.1118C14.5124 16.0627 14.5124 16.0135 14.5124 15.9644C14.5124 15.9152 14.5124 15.866 14.5124 15.8169C14.5124 15.7677 14.5124 15.7186 14.5124 15.6694C14.5124 15.6203 14.5124 15.5711 14.5124 15.522C14.5124 15.4728 14.5124 15.4236 14.5124 15.3745C14.5124 15.3253 14.5124 15.2762 14.5124 15.227C14.5124 15.1779 14.5124 15.1287 14.5124 15.0795C14.5124 15.0304 14.5124 14.9812 14.5124 14.9321C14.5124 14.8829 14.5124 14.8338 14.5124 14.7846C14.5124 14.7354 14.5124 14.6863 14.5124 14.6371C14.5124 14.588 14.5124 14.5388 14.5124 14.4897C14.5124 14.4405 14.5124 14.3913 14.5124 14.3422C14.5124 14.293 14.5124 14.2439 14.5124 14.1947C14.5124 14.1456 14.5124 14.0964 14.5124 14.0472C14.5124 13.9981 14.5124 13.9489 14.5124 13.8998C14.5124 13.8506 14.5124 13.8015 14.5124 13.7523C14.5124 13.7031 14.5124 13.654 14.5124 13.6048C14.5124 13.5557 14.5124 13.5065 14.5124 13.4574C14.5124 13.4082 14.5124 13.3591 14.5124 13.3099C14.5124 13.2607 14.5124 13.2116 14.5124 13.1624C14.5124 13.1133 14.5124 13.0641 14.5124 13.015C14.5124 12.9658 14.5124 12.9166 14.5124 12.8675C14.5124 12.8183 14.5124 12.7692 14.5124 12.72C14.5124 12.6709 14.5124 12.6217 14.5124 12.5725C14.5124 12.5234 14.5124 12.4742 14.5124 12.4251C14.5124 12.3759 14.5124 12.3268 14.5124 12.2776C14.5124 12.2284 14.5124 12.1793 14.5124 12.1301C14.5124 12.081 14.5124 12.0318 14.5124 11.9827C14.5124 11.9335 14.5124 11.8843 14.5124 11.8352C14.5124 11.786 14.5124 11.7369 14.5124 11.6877C14.5124 11.6386 14.5124 11.5894 14.5124 11.5402C14.5124 11.4911 14.5124 11.4419 14.5124 11.3928C14.5124 11.3436 14.5124 11.2945 14.5124 11.2453C14.5124 11.1962 14.5124 11.147 14.5124 11.0978C14.5124 11.0487 14.5124 10.9995 14.5124 10.9504C14.5124 10.9012 14.5124 10.8521 14.5124 10.8029C14.5124 10.7537 14.5124 10.7046 14.5124 10.6554C14.5124 10.6063 14.5124 10.5571 14.5124 10.508C14.5124 10.4588 14.5124 10.4096 14.5124 10.3605C14.5124 10.3113 14.5124 10.2622 14.5124 10.213C14.5124 10.1639 14.5124 10.1147 14.5124 10.0655C14.5124 10.0164 14.5124 9.96723 14.5124 9.91807C14.5124 9.86892 14.5124 9.81976 14.5124 9.7706C14.5124 9.72145 14.5124 9.67229 14.5124 9.62313C14.5124 9.57398 14.5124 9.52482 14.5124 9.47566C14.5124 9.4265 14.5124 9.37735 14.5124 9.32819C14.5124 9.27903 14.5124 9.22988 14.5124 9.18072C14.5124 9.13156 14.5124 9.08241 14.5124 9.03325C14.5124 8.98409 14.5124 8.93494 14.5124 8.88578C14.5124 8.83662 14.5124 8.78747 14.5124 8.73831C14.5124 8.68915 14.5124 8.64 14.5124 8.59084C14.5124 8.54168 14.5124 8.49253 14.5124 8.44337C14.5124 8.39421 14.5124 8.34505 14.5124 8.2959C14.5124 8.24674 14.5124 8.19758 14.5124 8.14843C14.5124 8.09927 14.5124 8.05011 14.5124 8.00096C14.5124 7.9518 14.5124 7.90264 14.5124 7.85349C14.5124 7.80433 14.5124 7.75517 14.5124 7.70602C14.5124 7.65686 14.5124 7.6077 14.5124 7.55855C14.5124 7.50939 14.5124 7.46023 14.5124 7.41108C14.5124 7.36192 14.5124 7.31276 14.5124 7.2636C14.5124 7.21445 14.5124 7.16529 14.5124 7.11613C14.5124 7.06698 14.5124 7.01782 14.5124 6.96866C14.5124 6.91951 14.5124 6.87035 14.5124 6.82119C14.5124 6.77204 14.5124 6.72288 14.5124 6.67372C14.5124 6.62457 14.5124 6.57541 14.5124 6.52625C14.5124 6.4771 14.5124 6.42794 14.5124 6.37878C14.5124 6.32963 14.5124 6.28047 14.5124 6.23131C14.5124 6.18215 14.5124 6.133 14.5124 6.08384C14.5124 6.03468 14.5124 5.98553 14.5124 5.93637H10.5124ZM12.5124 83.4413H49.9917V79.4413H12.5124V83.4413ZM51.6224 80.2833C51.2347 79.7375 50.8876 79.1989 50.5903 78.6488L47.0714 80.5507C47.4672 81.2831 47.9091 81.9629 48.3611 82.5993L51.6224 80.2833ZM48.8309 77.5997H14.3524V81.5997H48.8309V77.5997ZM16.3524 79.5997V7.77795H12.3524V79.5997H16.3524ZM14.3524 9.77796H67.7125V5.77795H14.3524V9.77796ZM65.7125 7.77795V53.6287H69.7125V7.77795H65.7125ZM67.3522 55.596C67.9163 55.6993 68.4604 55.8262 68.9839 55.9814L70.1211 52.1465C69.4434 51.9455 68.7586 51.787 68.0728 51.6614L67.3522 55.596ZM71.5525 54.0639V5.93637H67.5525V54.0639H71.5525ZM69.5525 3.93637H12.5124V7.93637H69.5525V3.93637Z" fill="#FF0000" mask="url(#path-3-inside-1_349_3281)"/>
<path d="M41.0322 21.1924C34.5822 21.1924 29.3346 26.4445 29.3346 32.9001C29.3346 39.3557 34.5822 44.6078 41.0322 44.6079C47.4823 44.6079 52.7317 39.3557 52.7317 32.9001C52.7317 26.4445 47.4823 21.1924 41.0322 21.1924ZM41.0322 23.0303C46.4893 23.0303 50.8935 27.4383 50.8935 32.9001C50.8935 38.3619 46.4893 42.7698 41.0322 42.7698C35.5751 42.7698 31.1728 38.3619 31.1728 32.9001C31.1728 27.4383 35.5751 23.0303 41.0322 23.0303Z" fill="#FF0000"/>
<path fill-rule="evenodd" clip-rule="evenodd" d="M26.4616 64.3455V64.5469V66.1853H47.4131C47.5954 65.558 47.8037 64.9425 48.0511 64.3455H26.4616Z" fill="#FF0000"/>
<path d="M64.505 56.1517C56.2607 56.1517 49.5223 62.8959 49.5223 71.1473C49.5223 79.4781 56.2607 86.1427 64.505 86.1427C72.7493 86.1427 79.4877 79.4781 79.4877 71.1473C79.4877 62.8959 72.7493 56.1517 64.505 56.1517ZM64.505 58.2939C71.6396 58.2939 77.3473 64.0065 77.3473 71.1473C77.3473 78.288 71.6396 84.0797 64.505 84.0797C57.3704 84.0797 51.6627 78.288 51.6627 71.1473C51.5836 64.0065 57.3704 58.2939 64.505 58.2939Z" fill="#FF0000"/>
<path d="M62.9186 63.1142C59.2331 63.1142 56.2244 66.1233 56.2244 69.8114C56.2244 73.4994 59.2331 76.5086 62.9186 76.5086C66.6039 76.5086 69.6109 73.4994 69.6109 69.8114C69.6109 66.1233 66.6039 63.1142 62.9186 63.1142ZM62.9186 64.9552C65.6094 64.9552 67.7694 67.1185 67.7694 69.8114C67.7694 72.5041 65.6094 74.6675 62.9186 74.6675C60.2276 74.6675 58.0658 72.5041 58.0658 69.8114C58.0658 67.1185 60.2276 64.9552 62.9186 64.9552Z" fill="#FF0000"/>
<path fill-rule="evenodd" clip-rule="evenodd" d="M67.4938 72.5833L66.1915 73.8848L71.4834 79.1805L72.7857 77.8791L67.4938 72.5833Z" fill="#FF0000"/>
</svg>
