<svg width="124" height="114" viewBox="0 0 124 114" fill="none" xmlns="http://www.w3.org/2000/svg">
<path fill-rule="evenodd" clip-rule="evenodd" d="M43.5703 74.4178C42.6621 74.5959 41.6277 74.6468 40.6942 74.6723C39.786 74.6977 38.7768 74.6977 37.8686 74.5705C37.3135 74.4942 36.7333 74.3924 36.2035 74.2397L35.7746 74.1125L35.9007 76.6313C35.9512 77.4963 36.7585 77.7762 37.4397 78.0306C38.4236 78.3868 39.2814 78.7684 40.0887 79.4808C41.1988 80.473 41.8547 81.8215 42.2836 83.2462C42.3341 83.4243 42.3593 83.7042 42.3845 83.8823L43.5703 92.1509C43.7217 93.1431 43.6712 94.2117 43.1414 95.1022C42.5107 96.1962 41.4763 96.7559 40.2653 96.8831C39.5841 96.9594 38.3984 96.9086 37.7929 96.5269C36.5062 95.7637 36.1782 94.8732 35.7746 93.4993L33.3274 85.2052C32.7976 83.4497 31.4857 83.8568 30.0476 83.755C28.4834 83.6533 26.7679 83.5261 25.3803 82.7119C23.3872 81.5162 23.261 75.8935 23.2358 73.8327C23.2106 71.95 23.261 70.0927 23.3367 68.21C23.4124 66.0729 23.1097 63.834 24.5729 62.053C25.7082 60.6792 27.3733 59.8905 29.1141 59.7632C30.5774 59.6615 32.1668 60.2212 33.3021 61.1117C34.0338 61.6714 34.5384 62.3838 34.942 63.1979C35.5223 64.2919 35.9007 65.4623 36.481 66.5563C37.1874 67.8538 37.5911 68.1591 39.1048 68.2609C40.2905 68.3372 41.5772 68.21 42.763 68.0573C43.5955 67.9556 44.4533 68.1845 45.1093 68.7188C45.967 69.3803 46.4212 70.4489 46.3202 71.5429C46.295 71.7719 46.2446 72.0008 46.1689 72.2298C45.967 72.8404 45.6391 73.3747 45.1345 73.7818C44.6804 74.1125 44.1253 74.2906 43.5703 74.4178ZM32.8985 64.1138C32.621 63.3506 31.9398 62.8417 31.2586 62.4855C30.6531 62.1802 29.8962 61.9767 29.2151 62.0276C28.0798 62.1039 26.9949 62.5873 26.2633 63.4778C25.8092 64.0375 25.6326 64.7753 25.6073 65.4622C25.5821 66.4036 25.5821 67.3195 25.5316 68.2609C25.4812 69.7619 25.4307 71.2376 25.4055 72.7387C25.3803 74.3924 25.3803 76.1224 25.5316 77.8016C25.6073 78.5394 25.7587 80.3204 26.4651 80.7274C27.4238 81.3126 29.0385 81.3889 30.1485 81.4653C31.4352 81.567 33.2769 81.6434 34.3113 82.4575C34.6645 82.7374 34.9168 83.0681 35.0934 83.4752C35.3457 84.0858 35.4971 84.7982 35.6989 85.4088L37.919 92.9142C38.1209 93.5757 38.2218 94.1354 38.8525 94.517C39.2309 94.746 39.7103 94.8478 40.1392 94.6951H40.1644C40.1896 94.6951 40.1896 94.6951 40.2149 94.6951C40.6185 94.5933 40.9465 94.288 41.1736 93.9319C41.552 93.2704 41.4006 93.0668 41.2997 92.4308L40.0887 83.8823C39.9373 82.7883 39.5084 81.8469 38.6254 81.16C37.9947 80.6766 37.3388 80.4476 36.6071 80.1677C34.7654 79.4808 33.731 78.972 33.6049 76.7585L33.3778 72.3062C33.3526 71.6701 33.8319 71.1358 34.4374 71.1104C34.715 71.0849 34.9672 71.2121 35.1943 71.3648C36.0269 71.9754 37.0612 72.2298 38.0704 72.357C38.3984 72.4079 38.7768 72.4079 39.1048 72.4079C39.6598 72.4334 40.2149 72.4334 40.7699 72.4079C41.3502 72.4079 43.1919 72.3825 43.646 72.0008C44.1001 71.6447 44.0749 70.856 43.6208 70.5252C43.4189 70.3726 43.1666 70.2962 42.9396 70.3471C41.6277 70.4998 40.2149 70.6524 38.8777 70.5506C37.9947 70.4998 36.9603 70.2199 36.2035 69.762C35.4466 69.2786 34.8411 68.439 34.4122 67.6757C33.9329 66.7852 33.504 65.8184 33.1255 64.8771C33.1255 64.5972 33.0246 64.3428 32.8985 64.1138Z" fill="#FF0000"/>
<path d="M32.3182 49.9427C30.8802 49.9427 29.5935 50.5278 28.6348 51.4692C27.7014 52.4105 27.1211 53.7335 27.1211 55.1837C27.1211 56.6339 27.7014 57.9314 28.6348 58.8982C29.5683 59.8396 30.8802 60.4248 32.3182 60.4248C33.7563 60.4248 35.043 59.8396 36.0017 58.8982C36.9351 57.9569 37.5154 56.6339 37.5154 55.1837C37.5154 53.7335 36.9351 52.436 36.0017 51.4692C35.0682 50.5278 33.7563 49.9427 32.3182 49.9427ZM30.1233 52.9448C30.6784 52.3851 31.4605 52.0289 32.3182 52.0289C33.176 52.0289 33.9581 52.3851 34.5132 52.9448C35.0682 53.5045 35.4214 54.2932 35.4214 55.1583C35.4214 56.0233 35.0682 56.812 34.5132 57.3717C33.9581 57.9314 33.176 58.2876 32.3182 58.2876C31.4605 58.2876 30.6784 57.9314 30.1233 57.3717C29.5683 56.812 29.2151 56.0233 29.2151 55.1583C29.1899 54.3187 29.5431 53.53 30.1233 52.9448Z" fill="#FF0000"/>
<path fill-rule="evenodd" clip-rule="evenodd" d="M81.2875 74.4178C82.1958 74.5959 83.2301 74.6468 84.1636 74.6723C85.0718 74.6977 86.081 74.6977 86.9892 74.5705C87.5443 74.4942 88.1245 74.3924 88.6543 74.2397L89.0832 74.1125L88.9571 76.6313C88.9066 77.4963 88.0993 77.7762 87.4181 78.0306C86.4342 78.3868 85.5764 78.7684 84.7691 79.4808C83.659 80.473 83.0031 81.8215 82.5742 83.2462C82.5237 83.4243 82.4985 83.7042 82.4733 83.8823L81.2875 92.1509C81.1361 93.1431 81.1866 94.2117 81.7164 95.1022C82.3471 96.1962 83.3815 96.7559 84.5925 96.8831C85.2737 96.9594 86.4594 96.9086 87.0649 96.5269C88.3516 95.7637 88.6796 94.8732 89.0832 93.4993L91.5304 85.2052C92.0602 83.4497 93.3721 83.8568 94.8102 83.755C96.3744 83.6533 98.09 83.5261 99.4775 82.7119C101.471 81.5162 101.597 75.8935 101.622 73.8327C101.647 71.95 101.597 70.0927 101.521 68.21C101.445 66.0729 101.748 63.834 100.285 62.053C99.1496 60.6792 97.4845 59.8905 95.7437 59.7632C94.2804 59.6615 92.691 60.2212 91.5557 61.1117C90.824 61.6714 90.3195 62.3838 89.9158 63.1979C89.3355 64.2919 88.9571 65.4623 88.3768 66.5563C87.6704 67.8538 87.2668 68.1591 85.753 68.2609C84.5673 68.3372 83.2806 68.21 82.0948 68.0573C81.2623 67.9556 80.4045 68.1845 79.7486 68.7188C78.8908 69.3803 78.4366 70.4489 78.5376 71.5429C78.5628 71.7719 78.6132 72.0008 78.6889 72.2298C78.8908 72.8404 79.2187 73.3747 79.7233 73.7818C80.2027 74.1125 80.7325 74.2906 81.2875 74.4178ZM91.9593 64.1138C91.9846 64.0884 91.9846 64.1138 91.9593 64.1138C92.2368 63.3506 92.918 62.8417 93.5992 62.4855C94.2047 62.1802 94.9616 61.9767 95.6428 62.0276C96.7781 62.1039 97.8629 62.5873 98.5945 63.4778C99.0486 64.0375 99.2253 64.7753 99.2505 65.4622C99.2757 66.4036 99.2757 67.3195 99.3262 68.2609C99.3766 69.7619 99.4271 71.2376 99.4523 72.7387C99.4775 74.3924 99.4775 76.1224 99.3262 77.8016C99.2505 78.5394 99.0991 80.3204 98.3927 80.7274C97.434 81.3126 95.8194 81.3889 94.7093 81.4653C93.4226 81.567 91.5809 81.6434 90.5465 82.4575C90.1933 82.7374 89.941 83.0681 89.7644 83.4752C89.5121 84.0858 89.3608 84.7982 89.1589 85.4088L86.9388 92.9142C86.737 93.5757 86.636 94.1354 86.0053 94.517C85.6269 94.746 85.1475 94.8478 84.7186 94.6951H84.6934C84.6682 94.6951 84.6682 94.6951 84.643 94.6951C84.2393 94.5933 83.9113 94.288 83.6843 93.9319C83.3058 93.2704 83.4572 93.0668 83.5581 92.4308L84.7691 83.8823C84.9205 82.7883 85.3494 81.8469 86.2324 81.16C86.8631 80.6766 87.519 80.4476 88.2507 80.1677C90.0924 79.4808 91.1268 78.972 91.2529 76.7585L91.48 72.3062C91.5052 71.6701 91.0259 71.1358 90.4204 71.1104C90.1428 71.0849 89.8906 71.2121 89.6635 71.3648C88.8309 71.9754 87.7966 72.2298 86.7874 72.357C86.4594 72.4079 86.081 72.4079 85.753 72.4079C85.198 72.4334 84.643 72.4334 84.0879 72.4079C83.5076 72.4079 81.6659 72.3825 81.2118 72.0008C80.7577 71.6447 80.7829 70.856 81.2371 70.5252C81.4389 70.3726 81.6912 70.2962 81.9182 70.3471C83.2301 70.4998 84.643 70.6524 85.9801 70.5506C86.8631 70.4998 87.8975 70.2199 88.6543 69.762C89.4112 69.2786 90.0167 68.439 90.4456 67.6757C90.9249 66.7852 91.3538 65.8184 91.7323 64.8771C91.7575 64.5972 91.8584 64.3428 91.9593 64.1138Z" fill="#FF0000"/>
<path d="M45.9166 70.2708H54.444L58.632 59.0763L60.4485 59.7633L56.0082 71.5938L55.7811 72.2298H55.0999H45.9166V70.2708Z" fill="#FF0000"/>
<path d="M79.3954 72.2298H70.1868H69.5309L69.2786 71.5938L64.8635 59.7633L66.6548 59.0763L70.868 70.2708H79.3954V72.2298Z" fill="#FF0000"/>
<path d="M93.3217 49.9427C94.7597 49.9427 96.0464 50.5278 97.0051 51.4692C97.9386 52.4105 98.5188 53.7335 98.5188 55.1837C98.5188 56.6339 97.9386 57.9314 97.0051 58.8982C96.0716 59.8396 94.7597 60.4248 93.3217 60.4248C91.8836 60.4248 90.5969 59.8396 89.6382 58.8982C88.7048 57.9569 88.1245 56.6339 88.1245 55.1837C88.1245 53.7335 88.7048 52.436 89.6382 51.4692C90.5717 50.5278 91.8836 49.9427 93.3217 49.9427ZM95.5166 52.9448C94.9615 52.3851 94.1794 52.0289 93.3217 52.0289C92.4639 52.0289 91.6818 52.3851 91.1268 52.9448C90.5717 53.5045 90.2185 54.2932 90.2185 55.1583C90.2185 56.0233 90.5717 56.812 91.1268 57.3717C91.6818 57.9314 92.4639 58.2876 93.3217 58.2876C94.1794 58.2876 94.9615 57.9314 95.5166 57.3717C96.0716 56.812 96.4248 56.0233 96.4248 55.1583C96.4248 54.3187 96.0968 53.53 95.5166 52.9448Z" fill="#FF0000"/>
<path d="M44.1254 73.4002C43.5956 73.4002 43.1667 73.8327 43.1667 74.367C43.1667 74.9013 43.5956 75.3338 44.1254 75.3338H58.6825C59.2123 75.3338 59.6411 74.9013 59.6411 74.367C59.6411 73.8327 59.2123 73.4002 58.6825 73.4002H44.1254Z" fill="#FF0000"/>
<path d="M45.8409 100.013C45.8409 100.547 46.2698 100.979 46.7996 100.979C47.3294 100.979 47.7583 100.547 47.7583 100.013V74.3924C47.7583 73.8581 47.3294 73.4256 46.7996 73.4256C46.2698 73.4256 45.8409 73.8581 45.8409 74.3924V100.013Z" fill="#FF0000"/>
<path d="M55.655 100.013C55.655 100.547 56.0839 100.979 56.6137 100.979C57.1435 100.979 57.5724 100.547 57.5724 100.013V74.3924C57.5724 73.8581 57.1435 73.4256 56.6137 73.4256C56.0839 73.4256 55.655 73.8581 55.655 74.3924V100.013Z" fill="#FF0000"/>
<path d="M64.1823 73.4002C63.6525 73.4002 63.2236 73.8327 63.2236 74.367C63.2236 74.9013 63.6525 75.3338 64.1823 75.3338H78.7394C79.2692 75.3338 79.6981 74.9013 79.6981 74.367C79.6981 73.8327 79.2692 73.4002 78.7394 73.4002H64.1823Z" fill="#FF0000"/>
<path d="M65.8979 100.013C65.8979 100.547 66.3268 100.979 66.8566 100.979C67.3864 100.979 67.8153 100.547 67.8153 100.013V74.3924C67.8153 73.8581 67.3864 73.4256 66.8566 73.4256C66.3268 73.4256 65.8979 73.8581 65.8979 74.3924V100.013Z" fill="#FF0000"/>
<path d="M75.6867 100.013C75.6867 100.547 76.1156 100.979 76.6454 100.979C77.1752 100.979 77.6041 100.547 77.6041 100.013V74.3924C77.6041 73.8581 77.1752 73.4256 76.6454 73.4256C76.1156 73.4256 75.6867 73.8581 75.6867 74.3924V100.013Z" fill="#FF0000"/>
<path d="M18.7451 67.1669C18.6442 66.6326 18.1396 66.3019 17.6098 66.4036C17.08 66.5054 16.752 67.0142 16.8529 67.5485L20.4102 85.5106C20.5111 85.9685 20.9148 86.2993 21.3689 86.2993H31.0568L32.7723 99.4782C32.848 100.013 33.3274 100.394 33.8572 100.318C34.387 100.241 34.7654 99.7581 34.6897 99.2238L32.8733 85.2816C32.848 84.7728 32.4191 84.3402 31.9146 84.3402H22.151L18.7451 67.1669Z" fill="#FF0000"/>
<path d="M22.2267 86.0194C22.3781 85.5106 22.0753 84.9763 21.5455 84.8236C21.0157 84.671 20.5111 84.9763 20.3597 85.5106L16.4997 99.6054C16.3483 100.114 16.6511 100.649 17.1809 100.801C17.6855 100.954 18.2153 100.649 18.3667 100.114L22.2267 86.0194Z" fill="#FF0000"/>
<path d="M107.147 67.5485C107.248 67.0142 106.92 66.5054 106.39 66.4036C105.86 66.3019 105.356 66.6326 105.255 67.1669L101.849 84.3402H92.0855C91.5557 84.3402 91.152 84.7473 91.1268 85.2816L89.3103 99.2238C89.2346 99.7581 89.613 100.241 90.1429 100.318C90.6727 100.394 91.152 100.013 91.2277 99.4782L92.9433 86.2993H102.631C103.085 86.2993 103.489 85.9685 103.59 85.5106L107.147 67.5485Z" fill="#FF0000"/>
<path d="M103.64 85.5106C103.489 85.0017 102.959 84.6964 102.455 84.8236C101.95 84.9763 101.647 85.5106 101.773 86.0194L105.633 100.114C105.785 100.623 106.315 100.928 106.819 100.801C107.324 100.649 107.626 100.114 107.5 99.6054L103.64 85.5106Z" fill="#FF0000"/>
<path d="M23.4881 41.903L22.4537 47.144L28.3068 41.5722C28.4834 41.3941 28.7357 41.3178 28.9628 41.3178H42.7125C44.0244 41.3178 45.185 40.7835 46.0427 39.9185C46.9005 39.0535 47.4303 37.8577 47.4303 36.5602V30.7848C47.4303 29.4618 46.9005 28.2915 46.0427 27.4265C45.185 26.5615 43.9992 26.0272 42.7125 26.0272H25.0523C23.7404 26.0272 22.5799 26.5615 21.7221 27.4265C20.8643 28.2915 20.3345 29.4873 20.3345 30.7848V36.5347C20.3345 37.4506 20.5868 38.3157 21.0409 39.028C21.495 39.7913 22.1762 40.4019 22.9583 40.809C23.3872 41.0125 23.589 41.4705 23.4881 41.903ZM19.9813 49.7391L21.4698 42.1574C20.6373 41.6231 19.9308 40.8853 19.4263 40.0457C18.7955 39.028 18.4171 37.8068 18.4171 36.5093V30.7848C18.4171 28.9276 19.174 27.2484 20.385 26.0272C21.596 24.806 23.2611 24.0427 25.1028 24.0427H42.763C44.6047 24.0427 46.2698 24.806 47.4808 26.0272C48.6918 27.2484 49.4487 28.9276 49.4487 30.7848V36.5347C49.4487 38.392 48.6918 40.0712 47.4808 41.2924C46.2698 42.5136 44.6047 43.2768 42.763 43.2768H29.3917L21.6716 50.6041C21.4446 50.8331 21.1166 50.9603 20.7634 50.9094C20.2084 50.7822 19.8552 50.2734 19.9813 49.7391Z" fill="#FF0000"/>
<path d="M100.613 42.1574L102.101 49.7391C102.202 50.2734 101.874 50.7822 101.344 50.884C100.991 50.9603 100.663 50.8331 100.436 50.5787L92.7162 43.2514H79.3449C77.5032 43.2514 75.8381 42.4881 74.6271 41.2669C73.4161 40.0457 72.6592 38.3665 72.6592 36.5093V30.7848C72.6592 28.9276 73.4161 27.2484 74.6271 26.0272C75.8381 24.806 77.5032 24.0427 79.3449 24.0427H97.0051C98.8468 24.0427 100.512 24.806 101.723 26.0272C102.934 27.2484 103.691 28.9276 103.691 30.7848V36.5347C103.691 37.8323 103.312 39.028 102.682 40.0712C102.152 40.9107 101.445 41.6231 100.613 42.1574ZM99.6037 47.144L98.5693 41.9284C98.4684 41.4959 98.6702 41.0379 99.0739 40.809C99.856 40.4019 100.537 39.7913 100.991 39.028C101.445 38.2902 101.698 37.4506 101.698 36.5347V30.7848C101.698 29.4618 101.168 28.2915 100.31 27.4265C99.4523 26.5615 98.2666 26.0272 96.9799 26.0272H79.3197C78.0078 26.0272 76.8472 26.5615 75.9895 27.4265C75.1317 28.2915 74.6019 29.4873 74.6019 30.7848V36.5347C74.6019 37.8577 75.1317 39.028 75.9895 39.8931C76.8472 40.7581 78.033 41.2924 79.3197 41.2924H93.0946C93.3217 41.2924 93.574 41.3687 93.7506 41.5468L99.6037 47.144Z" fill="#FF0000"/>
</svg>
