<svg xmlns="http://www.w3.org/2000/svg" viewBox="0 0 449.29 423.24"><defs><style>.cls-1{fill:#fff;}.cls-1,.cls-2{fill-rule:evenodd;}.cls-2{fill:#e4232a;}</style></defs><title>Asset 2</title><g id="Layer_2" data-name="Layer 2"><g id="Layer_2-2" data-name="Layer 2"><path class="cls-1" d="M209,.18c-20.42,2.06-35.55,5.33-51.79,11.16A199.38,199.38,0,0,0,96.84,46.08a253,253,0,0,0-24,24.19c-26.59,32-42,72.25-43.19,112.78a23.34,23.34,0,0,0,.05,4.38,22.11,22.11,0,0,0,2.17-1.76,20.56,20.56,0,0,1,4.67-3.12c3.12-1.56,2.87-.81,3.72-10.46a172.86,172.86,0,0,1,17.65-61,182.57,182.57,0,0,1,75-77.94C186.44,3.24,252.91,1.64,308.07,29A183.44,183.44,0,0,1,357.3,64.44c29.26,29.36,47,66.42,51.29,107.15a72.58,72.58,0,0,0,1,7.79,4.4,4.4,0,0,0,1.91.71,17.75,17.75,0,0,1,4.63,2.06,12.24,12.24,0,0,0,3.12,1.61,65.65,65.65,0,0,0-.36-7.19,186.25,186.25,0,0,0-43.54-107,214.19,214.19,0,0,0-39.12-35.45c-26.35-17.9-54.25-28.46-87.29-33C243.41.33,214.2-.33,209,.18Z"/><path class="cls-1" d="M213.24,23.36c-1.51.1-5.83.5-9.55.95C133.9,32.41,75.32,82.24,57.87,148.46c-2.46,9.3-5,24.89-5,30.47,0,1.71.15,1.91,1.91,2.51a27.8,27.8,0,0,1,4.38,1.91c1.41.71,2.66,1.36,2.81,1.46a21.87,21.87,0,0,0,.66-5c2.06-31,14.08-61.44,34-86.38A203.08,203.08,0,0,1,121,69.06a166,166,0,0,1,88.9-35.55c4-.35,11.17-.5,18.86-.3,13.12.3,21,1.16,32,3.67C318.13,49.8,364.54,92.54,380.43,147.25c3.17,10.86,5.78,26.3,5.78,33.94,0,4.73.2,4.93,2.72,3.07a24.81,24.81,0,0,1,4.62-2.77l2.52-1.2-.2-2.82a202.12,202.12,0,0,0-3.42-22.58,148.93,148.93,0,0,0-13.28-37.1,159.56,159.56,0,0,0-31.68-44C312.3,38.54,263.93,20.39,213.24,23.36Z"/><path class="cls-1" d="M213.64,46.64a151.81,151.81,0,0,0-83,32.28,186.82,186.82,0,0,0-23.43,23.38A141.68,141.68,0,0,0,78.54,166a143.63,143.63,0,0,0,2,57.67,67.05,67.05,0,0,0,1.91,6.94c.2.3,2-1,4.27-3.27l3.87-3.77-1-4.63c-2.11-9.3-2.67-14.18-2.92-25.34-.3-12.42.2-19,2.16-28.81A129.77,129.77,0,0,1,124,98.48c22.48-23.13,50.13-36.76,83.72-41.33,6.29-.86,26.4-.91,33.19,0,51.59,6.48,94.58,39.22,112.88,86A132,132,0,0,1,359.61,217a31,31,0,0,0-.9,4.83c.05,0,1.05.7,2.26,1.46a45.4,45.4,0,0,1,4.12,3.11l2,1.76.51-1.91a123.75,123.75,0,0,0,3.06-14.38c6-37-3.77-76-26.7-106.44C319.34,72.83,282,51.77,240.65,47.14A202.51,202.51,0,0,0,213.64,46.64Z"/><path class="cls-1" d="M214.75,71.58c-12.07,1.35-19.81,2.86-28.21,5.53-40.63,12.87-71.95,46.26-81.4,86.68-4,17.3-3.88,38.17.45,54.16.55,2,.65,2.06,3.47,2.61a29,29,0,0,1,5.58,1.81l2.66,1.26-.25-1.11c-.15-.65-1-3.77-1.76-6.94a107.63,107.63,0,0,1-.35-50c10.61-44.75,49.83-78.59,96.89-83.72,2.72-.3,8.5-.55,12.93-.55a112.66,112.66,0,0,1,50.08,11.52c33.08,16.24,55.31,46.31,60.89,82.26a127.93,127.93,0,0,1,0,29.66,118.17,118.17,0,0,1-3.82,16.85c-.56,1.81-1,3.42-1,3.62s1.26-.5,2.82-1.61a30.51,30.51,0,0,1,6-3l3.22-1.05.75-3.37c2.52-11.11,3.52-27.86,2.37-38.37A116.59,116.59,0,0,0,310.49,106a123.17,123.17,0,0,0-68.08-33.44C237.43,71.78,218.77,71.12,214.75,71.58Z"/><path class="cls-2" d="M218,102.2A42.34,42.34,0,0,0,204.84,107c-3.72,2.21-11,9.45-13.17,13.12-3.27,5.63-5.58,13.12-5.58,18.35,0,1.91-.15,2.21-.86,2a53.48,53.48,0,0,0-5.63-1.15,35.92,35.92,0,0,0-17.9,1.61c-23.43,7.79-33.59,35.6-20.81,56.86,3.77,6.29,11.91,13.38,17.9,15.59,1.3.45,2.46.91,2.56,1a31.92,31.92,0,0,1-1.61,3.82,35.1,35.1,0,0,0-3.67,14.78,38.74,38.74,0,0,0,30.42,39.72,46.43,46.43,0,0,0,16.29,0,38.05,38.05,0,0,0,19.51-10.86l3.32-3.27,2.21,2.52a39.63,39.63,0,0,0,19.61,11.41c3.62.91,5.18,1.06,10.56.81,11.06-.46,18.86-4,26.5-12.12a37.91,37.91,0,0,0,10.31-22,39.67,39.67,0,0,0-4.68-23.44,12.58,12.58,0,0,1-1.35-2.86c.1,0,1.45-.71,3.11-1.46,17.5-7.89,26.55-28.76,20.42-47.16a36.74,36.74,0,0,0-6.89-12.73,40.29,40.29,0,0,0-20.21-12.92,43.32,43.32,0,0,0-20.77.4c-.71.21-.91,0-.91-1a38,38,0,0,0-.8-5.18C258.5,112.05,238.48,98.38,218,102.2Zm12.22,82.16c9.15,4.68,6.53,18.7-3.62,19.56-4.63.35-8.4-1.61-10.31-5.38a10.2,10.2,0,0,1,.5-10.81A10.31,10.31,0,0,1,230.24,184.36Z"/><path class="cls-1" d="M398.43,186.62a16.92,16.92,0,0,0-7.89,5.38c-3.57,4-5.13,8.85-7.14,22.58-4.08,27.45-18.91,61-35.15,79.34-5,5.63-7.19,7-9.25,5.69-1.76-1.16-.81-3.32,4.82-10.92A194,194,0,0,0,362.28,259c4.47-9,5.38-16,2.81-21.42a22.13,22.13,0,0,0-9.45-9.51c-3.12-1.55-3.72-1.66-8.4-1.66s-5.28.16-7.79,1.46c-4.07,2.11-8,6.44-11.36,12.47a170.93,170.93,0,0,1-18.36,27.05c-10.41,12.52-15.63,16.4-35,25.9-8.1,4-16.55,8.4-18.76,9.8-15.89,9.81-25.79,22.28-27.7,34.85-.66,4.12-1.16,5.38-2.27,5.38-.9,0-1.45-1.41-1.91-4.78-1.25-8.95-7.24-18.8-16.24-26.65-6-5.23-12.32-9.3-21.77-13.92-20.57-10-23.63-11.67-28.06-14.84-11.26-8.09-23.93-23.43-34-41.33-3.82-6.74-7.79-11.06-12.22-13.22-3-1.51-3.82-1.66-7.64-1.66s-4.68.2-7.59,1.56c-8.3,3.92-12.87,12.47-11.06,20.76,1.81,8.55,11.61,25.75,23.63,41.54,3.57,4.67,4.57,6.38,4.57,7.64,0,2.11-1.45,3-3.57,2.16-2-.8-7.69-6.94-12.32-13.17C84.22,269.13,71.7,239,68.18,216.19,65.87,201,63.5,194.67,58.73,190.9c-7.14-5.64-18.06-5.13-23.69,1-7.54,8.4-7.14,27.35,1.21,55.06a204.12,204.12,0,0,0,40.58,73.16,277.94,277.94,0,0,0,24,23.68c29,23.94,62.3,37.66,101.82,42,10.81,1.21,34.95,1.21,45.76,0q80.93-8.89,131.44-72.11c20.81-26.14,35.65-58.93,40.82-90.45,1.26-7.44,1.26-19.31,0-23.79-1.81-6.58-5.48-11.16-10.2-12.77A26.58,26.58,0,0,0,398.43,186.62Z"/><path class="cls-1" d="M431.46,236.55c-3.51,1.31-5.93,8-4.32,11.92.45,1.05.81,2,.81,2.06a4,4,0,0,1-1.16-.1c-1.11-.2-1.26,0-2.11,3.22-.51,1.86-.91,3.62-1,3.82s3.17,1.41,7.09,2.61,8.3,2.72,9.76,3.27a6.71,6.71,0,0,0,2.81.81c.15-.15,2.06-7,2.16-7.7,0,0-1.86-.7-4.12-1.45-7.09-2.32-8.9-3.63-8.95-6.39,0-1.46,1.56-3.37,2.77-3.37a51.82,51.82,0,0,1,6.33,1.81,33.93,33.93,0,0,0,5.78,1.56c.41-.35,2.17-7.14,1.91-7.34-.45-.5-15.08-5.08-16-5A6.22,6.22,0,0,0,431.46,236.55Z"/><path class="cls-1" d="M.05,237.71c0,.45,2.06,8,2.31,8.45,0,.05,1.91.45,4.22.85s4.23.8,4.28.86.6,2.06,1.2,4.37,1.26,4.52,1.41,4.83-1.31,1.66-3.27,3l-3.52,2.32,1.21,4.12c.65,2.21,1.31,4.17,1.41,4.32a78.21,78.21,0,0,0,8.19-5.53c4.38-3.17,9.71-6.94,11.87-8.39s3.87-2.87,3.87-3.12-.6-2.62-1.35-5.23l-1.31-4.73-2.82-.6c-1.56-.3-8.34-1.76-15.13-3.27C-1.46,236.8.05,237.05.05,237.71Zm23.28,11.91a5.41,5.41,0,0,1,2.36.61,35.81,35.81,0,0,1-6.44,4.07c-.4,0-1.6-3.92-1.6-5.08,0-.4.55-.45,1.65-.25C20.16,249.17,22,249.47,23.33,249.62Z"/><path class="cls-1" d="M423.57,265.16c-5.58,2.77-8.8,11.92-6.23,17.6a11.43,11.43,0,0,0,10.3,6.24c5.69,0,11.07-6.84,11.07-14.13a8,8,0,0,0-1.46-5.28C434.48,265.11,428,263,423.57,265.16Zm5.88,7.75c2.67,1.35,3.57,5,1.76,7-1.1,1.21-3.67,1.36-5.78.26a4.21,4.21,0,0,1-2.51-4C422.92,272.65,425.93,271.15,429.45,272.91Z"/><path class="cls-1" d="M24.33,270.59c-1.3,1.11-2.41,3.67-3.37,8-.2.95-.65,1.4-1.3,1.4-1.26,0-2.32-2-2.77-5.38L16.54,272,14,273.21c-2.52,1.25-2.52,1.3-2.22,3.27,1.26,7.94,6.14,13.17,10.51,11.31,2.26-.91,3.27-2.46,4.33-6.69s2.11-4.73,3.57-1.56a11,11,0,0,1,1,3.52c0,.81.1,1.41.25,1.41s1.26-.5,2.57-1.11c2.11-1.05,2.26-1.25,2.06-2.66-.55-3.22-2.57-7.59-4.38-9.45C29.36,268.93,26.65,268.68,24.33,270.59Z"/><path class="cls-1" d="M43.64,284.52c-1,.55-1.86,1.16-1.76,1.36,1,2.16,3.47,6.64,3.72,6.64a17.46,17.46,0,0,0,2.16-1l2-1L47.86,287a17.08,17.08,0,0,0-2.06-3.47A15,15,0,0,0,43.64,284.52Z"/><path class="cls-1" d="M402.9,286.73a26,26,0,0,0-1.6,3.67c0,.36,3.16,2.12,3.72,2.12a50.7,50.7,0,0,0,3.82-6.69c0-.35-3.27-2.37-3.87-2.37C404.71,283.46,403.81,284.92,402.9,286.73Z"/><path class="cls-1" d="M32.73,289.55c-3.47,1.66-7.64,3.62-9.3,4.32s-3.12,1.36-3.22,1.41a31.47,31.47,0,0,0,1.91,4L24.23,303l8.9-4.32c4.88-2.36,9.1-4.48,9.3-4.68.36-.3-2.86-7.59-3.31-7.49C39.07,286.53,36.2,287.89,32.73,289.55Z"/><path class="cls-1" d="M409.64,290.2a21.44,21.44,0,0,0-1.81,3.72c0,.25,2.32,1.76,5.18,3.37s6.69,3.92,8.55,5.13a30.55,30.55,0,0,0,3.77,2.16,44.64,44.64,0,0,0,4-7.09c.1-.2-1.86-1.45-4.27-2.76s-6.44-3.62-8.85-5.08-4.48-2.67-4.58-2.67A20.26,20.26,0,0,0,409.64,290.2Z"/><path class="cls-1" d="M404.61,299.81c-.55.95-1.15,1.76-1.4,1.76a11.78,11.78,0,0,1-2.62-1.46l-2.11-1.46-1.31,3.72L395.82,306l1.5,1.11c1.06.75,1.41,1.3,1.21,1.91-.9,2.11-.8,2.41,1.31,3.77l2.11,1.41.9-1.16.86-1.16,2,1.31c1.06.76,3.22,2.26,4.88,3.37,3.77,2.61,5.63,2.72,7.94.4a19,19,0,0,0,2.92-4.32l1.26-2.72-2.22-1.91-2.21-2-.8,1.61c-.46.91-1.21,1.76-1.76,1.81s-2.47-.85-4.38-2.16L407.88,305l1.21-1.92,1.26-2-2.22-1.56c-1.25-.8-2.31-1.5-2.41-1.5A7.57,7.57,0,0,0,404.61,299.81Z"/><path class="cls-1" d="M42.64,301.47l-1.92.85,2.67,2.31c3.32,2.87,4.93,5.53,4,6.69-.4.45-.85.81-1.1.81A34.65,34.65,0,0,1,42,308.61a26,26,0,0,0-5.08-4,6.05,6.05,0,0,0-8.29,4.08c-.56,1.81-.51,2.21.85,4.82,1.86,3.62,2.57,4,5.18,3.22l2.06-.6-1-1.46c-2.32-3.07.5-4.07,4-1.41a11,11,0,0,1,2.11,1.91A22.51,22.51,0,0,1,38,317.4c-2.31,1.21-3.67,2.27-3.52,2.62a25.81,25.81,0,0,0,2,3.42c1.66,2.61,1.86,2.76,2.92,2.21,7.29-3.92,12.87-7.29,13.83-8.3,1.5-1.71,1.4-4-.41-7.59-1.56-3.12-6.68-9.25-7.69-9.15A10.72,10.72,0,0,0,42.64,301.47Z"/><path class="cls-1" d="M394.51,316.35c-2.11.9-6.24,5.58-8.2,9.2a23.67,23.67,0,0,0-1.61,3.57c0,.7,2.47,3.62,3.07,3.62a.51.51,0,0,0,.45-.55c0-1.26,3.27-7.14,4.38-7.9s1.3-.7,2,0,.7,1.16-1.06,4.88a28.29,28.29,0,0,0-2.16,6c-.55,4,1.91,7,5.58,7,2.47,0,4.33-1.15,6.39-3.92l1.51-2.06-1.36-2.06-1.36-2-.95,1.51c-.66,1.15-1.26,1.5-2.07,1.4-1.45-.2-1.66-2-.45-5l.91-2.37,3.37,3a21.61,21.61,0,0,0,3.62,2.92c.1-.1,1.2-1.56,2.51-3.22l2.31-3-2.66-2.26c-1.46-1.26-4.23-3.72-6.14-5.43-3.06-2.82-5.13-4.18-6.23-4.13C396.17,315.7,395.31,316,394.51,316.35Z"/><path class="cls-1" d="M54.6,322.48c-2.21,1.81-5.73,4.43-7.79,5.84s-4,2.76-4.22,3,.8,1.86,2.31,3.62c2.36,2.77,2.91,3.17,3.47,2.62.4-.35,2.46-1.91,4.67-3.47,3.07-2.21,4.33-2.82,5.79-2.82,2.11,0,2.71.35,3.52,1.86.85,1.66-.05,3.07-4.08,6.19-2,1.51-4.12,3.22-4.72,3.77l-1.16,1,2.67,3,2.66,3L64,345.16c7.24-5.58,7.39-5.73,7.79-8,.6-3.73-4.68-9.91-8.45-9.91-1.05,0-1.05,0-.2-1s.81-1.05-1.76-4c-1.41-1.66-2.66-3-2.66-3S56.82,320.72,54.6,322.48Z"/><path class="cls-1" d="M379.22,333.29a6.65,6.65,0,0,0-2.06,4.83c0,1.26-.05,1.26-1,.45s-1.06-.7-3.52,2.17l-2.62,3,1.91,1.51c1.06.86,4.28,4.17,7.19,7.34l5.28,5.73,2.92-2.86,2.86-2.82L387,349.33c-4.13-4.27-4.83-5.33-4.83-7.69a3.89,3.89,0,0,1,1.46-3.32l1.51-1.41-2.42-2.36-2.36-2.31Z"/><path class="cls-1" d="M96.09,349.59c-.71.4-7.09,3.26-14.18,6.33s-13,5.78-12.93,5.93a27.44,27.44,0,0,0,3.57,3l3.52,2.72L80,365.68c4.42-2.17,3.51-2.32,9,2,2.16,1.76,3,2.71,2.81,3.26s-.85,2.22-1.51,3.93l-1.2,3.11,3.52,2.82c2,1.61,3.62,2.77,3.77,2.66s9.25-27.35,9.25-27.75c0-.15-5.63-4.73-7.79-6.39A2.21,2.21,0,0,0,96.09,349.59Zm.45,9.9c-.61,1.46-1.26,3.17-1.51,3.82l-.45,1.21-2-1.61a15.16,15.16,0,0,1-2.27-2c-.2-.35,4.78-3.12,7.14-4A15.38,15.38,0,0,1,96.54,359.49Z"/><path class="cls-1" d="M364.49,349.33c-3.67,1.11-8.35,5.48-9.45,8.8-1.71,5.23,1.81,12,7.39,14.13,2.76,1.06,5.58.51,9-1.86,2.41-1.61,7.24-6.38,7.24-7a13.33,13.33,0,0,0-1.41-2.71l-1.41-2.27L374,361c-2.21,2.86-4.47,4.47-6.53,4.47-1.56,0-3.37-.8-3.37-1.5,0-.26,2.36-2.42,5.28-4.83a65.63,65.63,0,0,0,5.28-4.63c0-.7-2.72-3.72-3.93-4.32A9,9,0,0,0,364.49,349.33Zm2.06,6.69c.55.71.1,1.21-3.37,4.07-1.25,1.11-1.41,1.06-1.86-.7C360.67,356.67,364.84,354,366.55,356Z"/><path class="cls-1" d="M341.36,358,338,360.14l1.71,3a16.16,16.16,0,0,1,1.61,3c-.1.1-1.21.7-2.46,1.46-2.92,1.66-5.69,4.72-6.49,7.14-2.21,6.63,3.27,15.33,9.6,15.33,3.47,0,7.5-2.81,8.55-5.93.55-1.61.66-1.71,1.26-.91s.85.81,3.67-1c1.71-1.06,3.07-2.11,3.07-2.36a45.66,45.66,0,0,0-2.92-5.33c-1.66-2.67-4.58-7.85-6.59-11.42s-3.82-6.69-4-6.89S343.22,356.88,341.36,358ZM346,374c1.76,3.52,2,6.09.5,7.54a3.81,3.81,0,0,1-4.63.36c-3.42-2.77-3.17-8.15.56-10.16a10,10,0,0,1,1.66-.76A11.24,11.24,0,0,1,346,374Z"/><path class="cls-1" d="M108.61,372.06c-1.16,2-3.57,5.93-5.33,8.65a55.37,55.37,0,0,0-3.17,5.33,16.63,16.63,0,0,0,3.47,2.16l3.47,1.86,3.11-5c3.22-5.28,4.73-6.73,6.64-6.43.86.1,1.21.5,1.31,1.66s-.71,2.81-3.17,6.73a57.46,57.46,0,0,0-3.27,5.54,18.4,18.4,0,0,0,3.52,2.16l3.47,1.81,1.61-2.82c4.22-7.59,6.39-9.75,8.55-8.65,1.66.91,1.1,2.87-2.31,8.3-1.81,2.87-3.27,5.28-3.27,5.43a47.89,47.89,0,0,0,6.74,3.87c.1,0,2.21-3.22,4.62-7.14,4.83-7.74,5.28-9.3,3.42-11.81a8.63,8.63,0,0,0-7.84-3.52c-2.62.15-2.92,0-2.92-.81,0-2.81-5.48-6.28-8.85-5.63-1.76.3-2.16-.1-1.16-1.11.51-.5-1.5-1.81-6.13-4.07C110.92,368.49,109.81,370.05,108.61,372.06Z"/><path class="cls-1" d="M318.33,379.5c-4.63,1.71-8.09,5.13-8.75,8.8-.85,4.38,1.86,10.26,5.68,12.52,3.37,2,9.41.66,15.14-3.27l2.41-1.66-.75-2.51a17.12,17.12,0,0,0-1-2.76,7.18,7.18,0,0,0-2.06,1.3c-2.76,2.16-4.88,3.17-6.79,3.17a3.25,3.25,0,0,1-3.32-1.61c-.6-.75-.1-1.16,5.54-4,3.41-1.71,6.28-3.17,6.38-3.27.4-.35-1.56-4.17-2.66-5.18a11.5,11.5,0,0,0-5.94-2.56A23.71,23.71,0,0,0,318.33,379.5Zm3.92,5.63c1.06,1.06.66,1.66-2.16,3.07-1.56.76-2.92,1.36-3,1.36-.6,0-.2-2.92.56-3.92C318.48,384.38,321.2,384.08,322.25,385.13Z"/><path class="cls-1" d="M291.88,383.63l-10.1,3.52,1.45,4.32c1.86,5.58,5.94,19.56,5.94,20.36.05,1.76.8,1.86,4.82.56,2.17-.76,4-1.41,4.13-1.46a35.39,35.39,0,0,0-1.46-5.28c-1.16-3.72-1.41-5.23-1-5.53s2.52-1,4.88-1.71,4.22-1.66,4.22-2a12.28,12.28,0,0,0-.55-2.37c-.3-.95-.6-2-.7-2.31s-1.36-.2-4.13.81c-6.43,2.36-5.93,2.36-6.63,0-.35-1.16-.46-2.27-.2-2.47a41.9,41.9,0,0,1,5.83-2.26c3-1.06,5.38-2.11,5.38-2.41a21.84,21.84,0,0,0-1.46-4.93C302.14,380.26,297.46,381.72,291.88,383.63Z"/><path class="cls-1" d="M146.42,388.3c-4.23,1.31-8.1,6.89-8.1,11.47a10,10,0,0,0,4.07,7.34c2.07,1.51,9.06,4.07,11,4.07.65,0,1.56-.85,2.51-2.41l1.46-2.37-3.92-.75c-3.77-.75-5.13-1.36-6.44-3-.7-.85-.85-3.32-.25-3.67.2-.15,3,.76,6.13,2a56.87,56.87,0,0,0,6.64,2.17c1.76.1,3-5,1.91-8.2C159.94,390.26,151.65,386.64,146.42,388.3Zm7.89,6.14c.66.9.81,2.76.3,3.32-.35.3-6.23-1.71-6.23-2.12s.75-1.4,1.76-2A3.59,3.59,0,0,1,154.31,394.44Z"/><path class="cls-1" d="M187.4,391a15.63,15.63,0,0,0-.56,2.36l-.3,2.11,3.22.56c4.68.8,4.63.8,5.23-1.71.3-1.26.35-2.27.2-2.27s-2-.3-4-.7S187.5,390.82,187.4,391Z"/><path class="cls-1" d="M166.78,397.7c-.5,2-1.81,6.34-2.86,9.56s-2,6.08-2,6.33c0,.41,7.5,2.37,7.75,2.07.05-.11.55-1.81,1.05-3.73,2-7.54,4.23-10.1,7.8-8.84a3.79,3.79,0,0,0,2,.3c.35-.2,1.16-4.28,1.26-6,0-.8-3.12-1.15-5-.5-1.61.55-1.81.55-1.81-.25s-.81-1.11-3.27-1.71c-1.76-.45-3.42-.81-3.62-.81S167.28,395.74,166.78,397.7Z"/><path class="cls-1" d="M184.38,404.79c-.7,3.73-1.76,8.25-2.26,10.11-.66,2.41-.76,3.47-.35,3.57a62.23,62.23,0,0,0,7.34,1.26c.6,0,.95-.91,1.45-3.92.36-2.12,1.21-6.49,1.92-9.66s1.3-6,1.35-6.23-5.23-1.61-7.54-1.76C186,398.11,185.18,401,184.38,404.79Z"/><path class="cls-1" d="M258.55,398.81a11.58,11.58,0,0,0-3.62,2.11l-1.46,1.41v-1.16c0-1.15-.1-1.15-2.62-.85-6,.75-6.08.8-5.73,2.36.15.81.5,4.58.81,8.35.85,10.86.95,11.31,1.91,11a25.59,25.59,0,0,1,3.36-.55c4.38-.55,4.13-.3,3.62-4.43-.95-8.09.16-11.61,3.63-11.31,2.36.2,2.81,1.26,3.57,8.2.3,3,.65,5.58.7,5.68a37.46,37.46,0,0,0,4-.45c2.47-.36,3.87-.81,3.87-1.21s-.35-4-.8-8.05c-.76-7.59-1.46-9.85-3.22-10.81S260.91,398.06,258.55,398.81Z"/><path class="cls-1" d="M202.68,401.38c-2.51,1.15-3.52,2.21-4.82,5s-1.61,7.85-.51,10.46c1.56,3.82,5.89,5.89,12.17,5.89,3,0,3.37-.36,4-4.43l.31-1.86-3.32.15c-3,.15-3.42.05-4.58-1.11a4.07,4.07,0,0,1-1.26-3.06c0-4.48,3-6.44,7.9-5.13l2.56.7.3-1.51c.66-3.26.41-4.22-1.3-4.87C211.33,400.62,204.69,400.47,202.68,401.38Z"/><path class="cls-1" d="M228.58,401.43c-5.38.8-6.79,1.3-7,2.36-.76,3.67-.76,4,.4,3.67,4.93-1.46,8-1.91,9.15-1.36,1.31.61,1.56,1.66.56,2.47a15.35,15.35,0,0,1-4,1.3c-6.08,1.41-9.4,4-9.4,7.24a6.43,6.43,0,0,0,3.27,5.33c1.71.81,7.54,1.11,8,.41a15.86,15.86,0,0,0,.56-2.27l.35-1.86h-1.81c-1.26,0-2-.25-2.16-.8-.51-1.36.5-2.31,3.26-3.27l2.62-.91v9.06l3.92-.16,3.87-.15.35-8.29c.36-9.2.21-10.16-2.41-11.67C236.47,401.58,231.44,401,228.58,401.43Z"/></g></g></svg>