<svg xmlns="http://www.w3.org/2000/svg" viewBox="0 0 571 80.89"><defs><style>.cls-1,.cls-3{fill:#fff;}.cls-1,.cls-2{fill-rule:evenodd;}.cls-2{fill:#e4232a;}</style></defs><title>AAF Logo White</title><g id="Layer_2" data-name="Layer 2"><g id="Layer_2-2" data-name="Layer 2"><path class="cls-1" d="M37.53,0A43,43,0,0,0,26.69,2.37,41.7,41.7,0,0,0,14.07,9.64a52.15,52.15,0,0,0-5,5.06A39,39,0,0,0,0,38.29a5.05,5.05,0,0,0,0,.91,4.62,4.62,0,0,0,.45-.37,4.91,4.91,0,0,1,1-.65c.65-.32.6-.17.78-2.19A36.12,36.12,0,0,1,5.92,23.23,38.18,38.18,0,0,1,21.61,6.93a39.64,39.64,0,0,1,36.64-.87,38.61,38.61,0,0,1,10.3,7.42A37,37,0,0,1,79.28,35.89a14.43,14.43,0,0,0,.21,1.63.88.88,0,0,0,.4.15,3.75,3.75,0,0,1,1,.43,2,2,0,0,0,.65.33,13.19,13.19,0,0,0-.08-1.5,39,39,0,0,0-9.1-22.38,44.55,44.55,0,0,0-8.19-7.41A41.34,41.34,0,0,0,45.89.23C44.73.07,38.62-.07,37.53,0Z"/><path class="cls-1" d="M38.42,4.89c-.32,0-1.22.1-2,.2-14.6,1.69-26.85,12.11-30.5,26a36.72,36.72,0,0,0-1,6.38c0,.35,0,.39.4.52a5.18,5.18,0,0,1,.91.4c.3.15.56.28.59.31a4,4,0,0,0,.14-1.06A32.67,32.67,0,0,1,14,19.54a41.56,41.56,0,0,1,5.1-5.09A34.7,34.7,0,0,1,37.72,7,38.42,38.42,0,0,1,41.66,7a30,30,0,0,1,6.7.76,33.73,33.73,0,0,1,25,23.09,32,32,0,0,1,1.21,7.1c0,1,0,1,.57.64a5.45,5.45,0,0,1,1-.58l.53-.25,0-.59a41.29,41.29,0,0,0-.72-4.72,31.3,31.3,0,0,0-2.77-7.76,33.46,33.46,0,0,0-6.63-9.21A36.37,36.37,0,0,0,38.42,4.89Z"/><path class="cls-1" d="M38.5,9.75a31.76,31.76,0,0,0-17.35,6.76,38.37,38.37,0,0,0-4.9,4.89,29.79,29.79,0,0,0-6,13.32,30.11,30.11,0,0,0,.43,12.07,14.55,14.55,0,0,0,.39,1.45c0,.06.42-.21.9-.69l.81-.79-.21-1A22.05,22.05,0,0,1,12,40.5a23.91,23.91,0,0,1,.45-6A27.09,27.09,0,0,1,19.75,20.6,29.05,29.05,0,0,1,37.26,12a44.64,44.64,0,0,1,6.94,0,28.93,28.93,0,0,1,23.61,18A27.48,27.48,0,0,1,69,45.4a5.4,5.4,0,0,0-.18,1l.47.3a10.22,10.22,0,0,1,.86.65l.41.37.11-.4a27.66,27.66,0,0,0,.64-3,29.43,29.43,0,0,0-5.59-22.26,31.3,31.3,0,0,0-21.6-12.2A42.9,42.9,0,0,0,38.5,9.75Z"/><path class="cls-1" d="M38.74,15a28.86,28.86,0,0,0-5.9,1.16,25.33,25.33,0,0,0-17,18.13,24.88,24.88,0,0,0,.09,11.33c.12.41.14.43.73.54a6.64,6.64,0,0,1,1.17.38l.55.26-.05-.23c0-.13-.2-.79-.37-1.45a22.49,22.49,0,0,1-.07-10.45A23.35,23.35,0,0,1,38.13,17.13c.56-.07,1.77-.12,2.7-.12A23.55,23.55,0,0,1,51.3,19.42,22.93,22.93,0,0,1,64,36.63a26.78,26.78,0,0,1,0,6.2,24.13,24.13,0,0,1-.8,3.52,7.29,7.29,0,0,0-.21.76s.26-.1.59-.34a6.37,6.37,0,0,1,1.25-.63l.67-.22.16-.7a28.51,28.51,0,0,0,.5-8,24.45,24.45,0,0,0-7.44-15,25.77,25.77,0,0,0-14.24-7A45.91,45.91,0,0,0,38.74,15Z"/><path class="cls-2" d="M39.42,21.38a8.53,8.53,0,0,0-2.76,1,11.54,11.54,0,0,0-2.75,2.74A8.57,8.57,0,0,0,32.74,29c0,.4,0,.46-.18.41a10.4,10.4,0,0,0-1.18-.24,7.54,7.54,0,0,0-3.74.33,8.13,8.13,0,0,0-4.35,11.9A8.81,8.81,0,0,0,27,44.63c.27.09.52.19.54.2a7.27,7.27,0,0,1-.34.8,7.34,7.34,0,0,0-.77,3.09A8.11,8.11,0,0,0,32.82,57a9.77,9.77,0,0,0,3.41,0,7.94,7.94,0,0,0,4.08-2.27l.7-.69.46.53A8.32,8.32,0,0,0,45.57,57a6.08,6.08,0,0,0,2.21.17,7.44,7.44,0,0,0,5.54-2.54A7.92,7.92,0,0,0,55.48,50a8.29,8.29,0,0,0-1-4.9,2.52,2.52,0,0,1-.28-.6l.65-.3a8.14,8.14,0,0,0,4.27-9.87,7.87,7.87,0,0,0-1.44-2.66A8.42,8.42,0,0,0,53.47,29a9.11,9.11,0,0,0-4.34.08c-.15.05-.19,0-.19-.22a9,9,0,0,0-.17-1.08A8.1,8.1,0,0,0,39.42,21.38ZM42,38.56a2.17,2.17,0,0,1-.75,4.09,2.17,2.17,0,0,1-2-3.38A2.15,2.15,0,0,1,42,38.56Z"/><path class="cls-1" d="M77.15,39a3.56,3.56,0,0,0-1.65,1.13C74.76,41,74.43,42,74,44.88c-.85,5.74-4,12.76-7.35,16.6-1,1.18-1.51,1.46-1.94,1.19s-.17-.7,1-2.29a40.29,40.29,0,0,0,3.86-6.21c.94-1.87,1.13-3.35.59-4.48a4.64,4.64,0,0,0-2-2,2.78,2.78,0,0,0-1.75-.35,2.56,2.56,0,0,0-1.63.31,6.33,6.33,0,0,0-2.38,2.61,35.82,35.82,0,0,1-3.84,5.65c-2.18,2.62-3.27,3.43-7.32,5.42-1.69.84-3.46,1.76-3.92,2-3.32,2-5.4,4.66-5.8,7.29-.13.86-.24,1.13-.47,1.13s-.3-.3-.4-1a9.62,9.62,0,0,0-3.4-5.58,19.65,19.65,0,0,0-4.55-2.91c-4.3-2.09-4.94-2.44-5.87-3.1a28.28,28.28,0,0,1-7.12-8.65,6.41,6.41,0,0,0-2.55-2.76,2.62,2.62,0,0,0-1.6-.35,2.9,2.9,0,0,0-1.59.32,3.94,3.94,0,0,0-2.31,4.35c.37,1.79,2.43,5.38,4.94,8.68.75,1,1,1.34,1,1.6,0,.45-.31.63-.75.46a12.44,12.44,0,0,1-2.58-2.76A37.91,37.91,0,0,1,8.08,45.22c-.49-3.19-1-4.5-2-5.29a3.76,3.76,0,0,0-4.95.22c-1.58,1.76-1.5,5.72.25,11.52A42.78,42.78,0,0,0,9.89,67a58.27,58.27,0,0,0,5,5,39,39,0,0,0,21.3,8.78,58.81,58.81,0,0,0,9.57,0A39.37,39.37,0,0,0,73.27,65.62,42.22,42.22,0,0,0,81.81,46.7a15.21,15.21,0,0,0,0-5,3.62,3.62,0,0,0-2.13-2.67A5.54,5.54,0,0,0,77.15,39Z"/><path class="cls-3" d="M118.56,31h-9.44L96.31,51.84h8.75l3.25-5.94h8.12l1.75,5.94h9.13Zm-8.13,10.12s2.44-4.44,2.63-4.56l2.06,4.56Z"/><path class="cls-3" d="M136,39.62s1.61-1.29,6.2,1.25V35.45s-6.8-1.6-11.27,0c0,0-4.43,1.65-3.06,5.76a3.53,3.53,0,0,0,2.21,2.08h0s5.56,2.23,3.46,3.67c0,0-1.61,1.29-6.19-1.26v5.43s6.8,1.6,11.27,0c0,0,4.42-1.66,3.06-5.76a3.91,3.91,0,0,0-2.22-2.08h0S133.89,41.05,136,39.62Z"/><rect class="cls-3" x="144.68" y="29.31" width="8.06" height="4.5"/><polygon class="cls-3" points="144.68 35 152.74 35 152.24 51.84 144.18 51.84 144.68 35"/><path class="cls-3" d="M191.31,34.88s-5.2-.58-7.11,2.44l0-2h-8.49l-.39,16.48h8.3V43.18a3.13,3.13,0,0,1,3.06-2.84,3,3,0,0,1,2.8,3v8.48h6.8V40.43S196.33,35.28,191.31,34.88Z"/><path class="cls-3" d="M226.06,31h-9.44L203.81,51.84h8.75l3.25-5.94h8.12l1.75,5.94h9.13Zm-8.13,10.12s2.44-4.44,2.63-4.56l2.06,4.56Z"/><path class="cls-3" d="M261.53,35.1h0l-.09,0a7.08,7.08,0,0,0-1.6-.15h-.17c-5.07-.14-6,3-6,3a6.39,6.39,0,0,0-4.19-2.83h0a5.77,5.77,0,0,0-1.19-.07h-.09L248,35l-.15,0c-3.2.18-4.31,1.69-4.61,2.27a.41.41,0,0,0-.05.09v0l0,.11.06-1.74v-.43h-7.68l-.36,16.48h7.52l.28-8.46s.14-3,1.89-3.33a1.59,1.59,0,0,1,.65,0h0c.54.1,1.63.6,1.72,2.89v8.89h6.44v-8s.11-3.09,1.75-3.59l.1,0h0a2.06,2.06,0,0,1,.26,0c.66,0,2.2.27,2.2,3.65v8h7.29V40S265.26,36,261.53,35.1Z"/><path class="cls-3" d="M286.32,44.63a7.4,7.4,0,0,0,.62-3.5c0-3.62-4.33-6.57-9.66-6.57a12.77,12.77,0,0,0-5.84,1.35h0a7.69,7.69,0,0,0-3.79,4h0s-.06.15-.14.41a7,7,0,0,0-.3,1.2,10,10,0,0,0,.51,5.5s0,.11.07.17l0,.1h0A5.63,5.63,0,0,0,270.05,50h0c5,3.5,15.1,1,15.1,1V46.23c-2.1,1-6.61.87-6.61.87-4.57-.07-4.43-2.47-4.43-2.47Zm-8.79-5.81a3,3,0,0,1,3,3.06h-5.93A3,3,0,0,1,277.53,38.82Z"/><path class="cls-3" d="M288.58,36.15V51.84h6.72V44a3.3,3.3,0,0,1,3.35-3.19c3.21,0,3,.78,3,.78V35.11s-4.63.38-5.37,2.33V36.15Z"/><rect class="cls-3" x="303.18" y="29.31" width="8.06" height="4.5"/><polygon class="cls-3" points="303.18 35 311.24 35 310.74 51.84 302.68 51.84 303.18 35"/><path class="cls-3" d="M319.58,43s0-5.48,9.25-2.73L328.41,35s-13.75-3.19-15.92,7.39c0,0-.82,5.38,3.88,7.92h0s2.74,1.8,8.76,1.47a18.14,18.14,0,0,0,2.11-.19l1.09-5.37S319.41,48.21,319.58,43Z"/><path class="cls-3" d="M366.72,34.88s-5.19-.58-7.1,2.44l-.05-2h-8.48l-.4,16.48H359V43.18a3.12,3.12,0,0,1,3.06-2.84,3,3,0,0,1,2.8,3v8.48h6.79V40.43S371.74,35.28,366.72,34.88Z"/><polygon class="cls-3" points="383.79 30.31 383.06 51.84 391.42 51.84 391.42 43.75 400.87 43.89 400.87 38.55 391.97 38.55 391.97 36.15 403.29 36.15 403.29 30.31 383.79 30.31"/><path class="cls-3" d="M422.57,44.63a7.4,7.4,0,0,0,.62-3.5c0-3.62-4.33-6.57-9.66-6.57a12.77,12.77,0,0,0-5.84,1.35h0a7.69,7.69,0,0,0-3.79,4h0s-.06.15-.14.41a6.2,6.2,0,0,0-.29,1.2A9.86,9.86,0,0,0,404,47s0,.11.07.17l0,.1h0A5.55,5.55,0,0,0,406.3,50h0c5,3.5,15.11,1,15.11,1V46.23c-2.11,1-6.61.87-6.61.87-4.58-.07-4.43-2.47-4.43-2.47Zm-8.79-5.81a3,3,0,0,1,3,3.06h-5.94A3,3,0,0,1,413.78,38.82Z"/><path class="cls-3" d="M437.69,30.29l-.12,4.92c-2.19-.06-14.36,0-13.69,9.72,0,0,.87,5.88,6.49,6.78a9.29,9.29,0,0,0,2.66.06,15.31,15.31,0,0,0,4.14-1.16v1.23h7.31l1-21.55Zm-6.9,14.93c-1-4.61,7-5.51,7-5.51s.06,7.72-3.89,7.87A3,3,0,0,1,430.79,45.22Z"/><path class="cls-3" d="M465.73,44.63a7.4,7.4,0,0,0,.62-3.5c0-3.62-4.33-6.57-9.66-6.57a12.77,12.77,0,0,0-5.84,1.35h0a7.69,7.69,0,0,0-3.79,4h0s-.06.15-.14.41a6.2,6.2,0,0,0-.29,1.2,9.86,9.86,0,0,0,.5,5.5s0,.11.07.17l0,.1h0A5.55,5.55,0,0,0,449.46,50h0c5,3.5,15.11,1,15.11,1V46.23c-2.11,1-6.62.87-6.62.87-4.57-.07-4.43-2.47-4.43-2.47Zm-8.79-5.81a3,3,0,0,1,3,3.06H454A3,3,0,0,1,456.94,38.82Z"/><path class="cls-3" d="M467.87,36.15V51.84h6.72V44A3.31,3.31,0,0,1,478,40.81c3.21,0,3,.78,3,.78V35.11s-4.63.38-5.38,2.33V36.15Z"/><rect class="cls-3" x="517.83" y="29.31" width="8.06" height="4.5"/><polygon class="cls-3" points="517.83 35 525.89 35 525.39 51.84 517.33 51.84 517.83 35"/><path class="cls-3" d="M566.07,34.88s-5.19-.58-7.1,2.44l-.05-2h-8.48L550,51.84h8.3V43.18a3.13,3.13,0,0,1,3.07-2.84,3,3,0,0,1,2.8,3v8.48H571V40.43S571.09,35.28,566.07,34.88Z"/><path class="cls-3" d="M505,51.84v-.71A4.45,4.45,0,0,0,505,51.84Z"/><path class="cls-3" d="M516.4,40.24V35.57h-3.86l.28-4.73-7.57,1.9v2.83h-3v4.74H505v7a5,5,0,0,0,1.95,3.72,6.34,6.34,0,0,0,3.59.78,21.67,21.67,0,0,0,4.91-.87l1-5s-4.35,2.52-4.77-1V40.24Z"/><path class="cls-3" d="M538,34.7c-6,0-10.77,3.84-10.77,8.57S532,51.84,538,51.84s10.77-3.84,10.77-8.57S543.91,34.7,538,34.7Zm0,12.22a3.65,3.65,0,1,1,3.65-3.65A3.65,3.65,0,0,1,538,46.92Z"/><path class="cls-3" d="M172.76,51.54V45h0V40.12s.48-5-6.13-5a74.55,74.55,0,0,0-10.06.43V41s5.06-2.69,8.31-1.87c0,0,1.13.2,1.13,1,0,0,.1.91-1.8.91,0,0-9.74.91-10.4,5.08,0,0-1.17,5,5.48,5.68a21.43,21.43,0,0,0,4.1,0l1.51-4s-5.3.31-4-1.37c0,0,1-1.69,4.68-1.38v6.59h7.18Z"/><path class="cls-3" d="M348.59,51.54V45h0V40.12s.48-5-6.13-5a74.55,74.55,0,0,0-10.06.43V41s5.06-2.69,8.31-1.87c0,0,1.13.2,1.13,1,0,0,.1.91-1.79.91,0,0-9.75.91-10.4,5.08,0,0-1.18,5,5.47,5.68a21.45,21.45,0,0,0,4.1,0l1.52-4s-5.31.31-4-1.37c0,0,1-1.69,4.69-1.38v6.59h7.17Z"/><path class="cls-3" d="M500.44,51.54V45h0V40.12s.49-5-6.13-5a74.57,74.57,0,0,0-10.06.43V41s5.07-2.69,8.32-1.87c0,0,1.12.2,1.12,1,0,0,.11.91-1.79.91,0,0-9.75.91-10.4,5.08,0,0-1.17,5,5.48,5.68a21.34,21.34,0,0,0,4.09,0l1.52-4s-5.3.31-4-1.37c0,0,1-1.69,4.69-1.38v6.59h7.17Z"/></g></g></svg>